<?xml version="1.0" encoding="UTF-8" standalone="no"?>
<svg
   xmlns:dc="http://purl.org/dc/elements/1.1/"
   xmlns:cc="http://creativecommons.org/ns#"
   xmlns:rdf="http://www.w3.org/1999/02/22-rdf-syntax-ns#"
   xmlns:svg="http://www.w3.org/2000/svg"
   xmlns="http://www.w3.org/2000/svg"
   xmlns:sodipodi="http://sodipodi.sourceforge.net/DTD/sodipodi-0.dtd"
   xmlns:inkscape="http://www.inkscape.org/namespaces/inkscape"
   viewBox="0 0 136 53.5"
   version="1.1"
   id="svg64"
   sodipodi:docname="media4.svg"
   inkscape:export-filename="/home/mmorsi/Workspace/devnullprod/src/assets/partners/media4.png"
   inkscape:export-xdpi="96"
   inkscape:export-ydpi="96"
   inkscape:version="0.92.4 (unknown)">
  <metadata
     id="metadata68">
    <rdf:RDF>
      <cc:Work
         rdf:about="">
        <dc:format>image/svg+xml</dc:format>
        <dc:type
           rdf:resource="http://purl.org/dc/dcmitype/StillImage" />
      </cc:Work>
    </rdf:RDF>
  </metadata>
  <sodipodi:namedview
     pagecolor="#ffffff"
     bordercolor="#666666"
     borderopacity="1"
     objecttolerance="10"
     gridtolerance="10"
     guidetolerance="10"
     inkscape:pageopacity="0"
     inkscape:pageshadow="2"
     inkscape:window-width="3397"
     inkscape:window-height="1520"
     id="namedview66"
     showgrid="false"
     inkscape:zoom="17.64486"
     inkscape:cx="158.74742"
     inkscape:cy="27.380069"
     inkscape:window-x="0"
     inkscape:window-y="54"
     inkscape:window-maximized="0"
     inkscape:current-layer="svg64" />
  <defs
     id="defs4">
    <style
       id="style2">.cls-1{fill:#999;}.cls-2{fill:#fff;}.cls-3{fill:#ff9000;fill-rule:evenodd;}</style>
  </defs>
  <title
     id="title6">Asset 3</title>
  <path
     class="cls-2"
     d="m 21.09,16.88 a 8,8 0 0 0 -3.49,0.8 4.79,4.79 0 0 0 -2.32,2 C 14.09,17.81 12,16.88 9,16.88 a 6.51,6.51 0 0 0 -5.37,2.8 L 2.42,17.27 H 0 V 38.14 H 3.7 V 22.74 A 5.21,5.21 0 0 1 5.49,20.85 4.26,4.26 0 0 1 7.86,20 a 5,5 0 0 1 3.07,0.89 2.9,2.9 0 0 1 1.16,2.43 v 14.82 h 3.7 V 22.7 A 4.38,4.38 0 0 1 17.39,20.82 4.29,4.29 0 0 1 19.9,20 q 4.28,0 4.27,4.94 v 13.2 h 3.7 V 24.19 A 7.65,7.65 0 0 0 26.1,18.8 6.47,6.47 0 0 0 21.09,16.88 Z"
     id="path44"
     inkscape:connector-curvature="0"
     style="fill:#ff000e;fill-opacity:1" />
  <path
     class="cls-2"
     d="m 41.56,16.88 a 9.15,9.15 0 0 0 -6.65,2.78 11.17,11.17 0 0 0 -3.14,8.34 10.46,10.46 0 0 0 3.06,7.91 9.25,9.25 0 0 0 6.69,2.67 14.12,14.12 0 0 0 4.95,-0.82 6.92,6.92 0 0 0 2.63,-1.48 l -1.56,-2.67 a 7.73,7.73 0 0 1 -5.3,1.85 6.29,6.29 0 0 1 -4.56,-1.71 7.53,7.53 0 0 1 -2,-5.64 h 15 A 8.42,8.42 0 0 0 51,25.8 8.61,8.61 0 0 0 48.55,19.39 9.5,9.5 0 0 0 41.56,16.88 Z m -5.79,8.49 a 5.85,5.85 0 0 1 6,-5.38 5.47,5.47 0 0 1 4.19,1.64 5.25,5.25 0 0 1 1.41,3.74 z"
     id="path46"
     inkscape:connector-curvature="0"
     style="fill:#ff000e;fill-opacity:1" />
  <path
     class="cls-2"
     d="m 68.15,18.4 a 7.07,7.07 0 0 0 -4.92,-1.52 8.47,8.47 0 0 0 -6.68,3.32 12,12 0 0 0 -2.81,8 11,11 0 0 0 2.44,7.49 8,8 0 0 0 6.35,2.8 7.6,7.6 0 0 0 5.62,-1.93 v 1.54 h 3.7 V 8.71 h -3.7 z m 0,15.28 a 3.15,3.15 0 0 1 -1.54,1.18 5.28,5.28 0 0 1 -2.11,0.55 q -6.86,0 -6.86,-7.54 a 8.53,8.53 0 0 1 1.84,-5.65 6,6 0 0 1 4.83,-2.22 4.41,4.41 0 0 1 3.84,2.11 z"
     id="path48"
     inkscape:connector-curvature="0"
     style="fill:#ff000e;fill-opacity:1" />
  <polygon
     class="cls-2"
     points="82.53,38.14 82.53,17.27 78.8,17.27 77.1,20.39 78.83,20.39 78.83,38.14 "
     id="polygon50"
     style="fill:#ff000e;fill-opacity:1" />
  <path
     class="cls-2"
     d="m 103.68,33 v -7.49 c 0,-3 -0.68,-5.19 -2.06,-6.57 C 100.24,17.56 98.05,16.88 95,16.88 A 11.34,11.34 0 0 0 91.44,17.49 9.34,9.34 0 0 0 88.55,19 l 1.56,3.1 a 7.22,7.22 0 0 1 5.34,-1.87 q 4.53,0 4.53,5.07 a 8.26,8.26 0 0 0 -2.65,-0.51 11.09,11.09 0 0 0 -7.09,2.19 6.65,6.65 0 0 0 -2.78,5.37 6,6 0 0 0 1.81,4.44 5.84,5.84 0 0 0 4.25,1.78 q 4.59,0 6.81,-2.79 a 3.61,3.61 0 0 0 1.61,2.13 6.93,6.93 0 0 0 3.38,0.64 v -1.89 c -1.09,-0.61 -1.64,-1.83 -1.64,-3.66 z m -3.7,-0.06 a 6.32,6.32 0 0 1 -5,2.67 q -3.84,0 -3.84,-3.26 a 4.29,4.29 0 0 1 1.77,-3.41 7,7 0 0 1 4.58,-1.44 13.4,13.4 0 0 1 2.46,0.39 z"
     id="path52"
     inkscape:connector-curvature="0"
     style="fill:#ff000e;fill-opacity:1" />
  <polygon
     class="cls-2"
     points="121.58,41.57 125.02,41.57 125.02,34.57 128.67,34.57 128.67,31.72 125.02,31.72 125.02,24.04 121.96,24.04 121.62,31.72 113.28,31.72 120.95,14.36 118.02,13.14 109.54,32.01 109.54,34.57 121.58,34.57 "
     id="polygon54"
     style="fill:#ff000e;fill-opacity:1" />
  <path
     class="cls-2"
     d="m 135.07,13.13 a 3.19,3.19 0 0 0 -5.44,2.25 3.06,3.06 0 0 0 0.93,2.25 3.17,3.17 0 0 0 4.51,0 3.19,3.19 0 0 0 0,-4.5 z m -0.37,4.13 a 2.64,2.64 0 0 1 -3.77,0 2.67,2.67 0 1 1 3.77,0 z"
     id="path56"
     inkscape:connector-curvature="0"
     style="fill:#ffffff" />
  <path
     class="cls-2"
     d="m 134.11,14.46 c 0,-0.72 -0.48,-1.09 -1.42,-1.09 h -1 v 3.93 h 0.56 v -1.69 h 0.57 l 1,1.69 h 0.61 l -1.08,-1.77 a 1.1,1.1 0 0 0 0.76,-1.07 z m -1.5,0.71 h -0.37 v -1.3 h 0.45 c 0.56,0 0.85,0.22 0.85,0.65 a 0.61,0.61 0 0 1 -0.19,0.53 1.38,1.38 0 0 1 -0.74,0.12 z"
     id="path58"
     inkscape:connector-curvature="0"
     style="fill:#ffffff" />
  <path
     class="cls-3"
     d="m 83.78,14.21 c 0,0 -4,-6.74 -5.13,-10 0,0 -1.61,3.05 -1.8,8.76 C 76,9.19 76.14,5.42 79.21,0 Z"
     id="path60"
     inkscape:connector-curvature="0"
     style="fill:#ff9000;fill-rule:evenodd" />
</svg>
