<svg width="88" height="88" viewBox="0 0 88 88" fill="none" xmlns="http://www.w3.org/2000/svg">
<path fill-rule="evenodd" clip-rule="evenodd" d="M26 13H14C13.4477 13 13 13.4477 13 14V26C13 26.5523 13.4477 27 14 27H26C26.5523 27 27 26.5523 27 26V14C27 13.4477 26.5523 13 26 13ZM14 12C12.8954 12 12 12.8954 12 14V26C12 27.1046 12.8954 28 14 28H26C27.1046 28 28 27.1046 28 26V14C28 12.8954 27.1046 12 26 12H14ZM50 13H38C37.4477 13 37 13.4477 37 14V26C37 26.5523 37.4477 27 38 27H50C50.5523 27 51 26.5523 51 26V14C51 13.4477 50.5523 13 50 13ZM38 12C36.8954 12 36 12.8954 36 14V26C36 27.1046 36.8954 28 38 28H50C51.1046 28 52 27.1046 52 26V14C52 12.8954 51.1046 12 50 12H38ZM14 37.0002H26C26.5523 37.0002 27 37.4479 27 38.0002V50.0002C27 50.5525 26.5523 51.0002 26 51.0002H14C13.4477 51.0002 13 50.5525 13 50.0002V38.0002C13 37.4479 13.4477 37.0002 14 37.0002ZM12 38.0002C12 36.8956 12.8954 36.0002 14 36.0002H26C27.1046 36.0002 28 36.8956 28 38.0002V50.0002C28 51.1048 27.1046 52.0002 26 52.0002H14C12.8954 52.0002 12 51.1048 12 50.0002V38.0002ZM50 37.0002H38C37.4477 37.0002 37 37.4479 37 38.0002V50.0002C37 50.5525 37.4477 51.0002 38 51.0002H50C50.5523 51.0002 51 50.5525 51 50.0002V38.0002C51 37.4479 50.5523 37.0002 50 37.0002ZM38 36.0002C36.8954 36.0002 36 36.8956 36 38.0002V50.0002C36 51.1048 36.8954 52.0002 38 52.0002H50C51.1046 52.0002 52 51.1048 52 50.0002V38.0002C52 36.8956 51.1046 36.0002 50 36.0002H38ZM62 37.0002H74C74.5523 37.0002 75 37.4479 75 38.0002V50.0002C75 50.5525 74.5523 51.0002 74 51.0002H62C61.4477 51.0002 61 50.5525 61 50.0002V38.0002C61 37.4479 61.4477 37.0002 62 37.0002ZM60 38.0002C60 36.8956 60.8954 36.0002 62 36.0002H74C75.1046 36.0002 76 36.8956 76 38.0002V50.0002C76 51.1048 75.1046 52.0002 74 52.0002H62C60.8954 52.0002 60 51.1048 60 50.0002V38.0002ZM26 60.9999H14C13.4477 60.9999 13 61.4477 13 61.9999V73.9999C13 74.5522 13.4477 74.9999 14 74.9999H26C26.5523 74.9999 27 74.5522 27 73.9999V61.9999C27 61.4477 26.5523 60.9999 26 60.9999ZM14 59.9999C12.8954 59.9999 12 60.8954 12 61.9999V73.9999C12 75.1045 12.8954 75.9999 14 75.9999H26C27.1046 75.9999 28 75.1045 28 73.9999V61.9999C28 60.8954 27.1046 59.9999 26 59.9999H14ZM38 60.9999H50C50.5523 60.9999 51 61.4477 51 61.9999V73.9999C51 74.5522 50.5523 74.9999 50 74.9999H38C37.4477 74.9999 37 74.5522 37 73.9999V61.9999C37 61.4477 37.4477 60.9999 38 60.9999ZM36 61.9999C36 60.8954 36.8954 59.9999 38 59.9999H50C51.1046 59.9999 52 60.8954 52 61.9999V73.9999C52 75.1045 51.1046 75.9999 50 75.9999H38C36.8954 75.9999 36 75.1045 36 73.9999V61.9999ZM74 60.9999H62C61.4477 60.9999 61 61.4477 61 61.9999V73.9999C61 74.5522 61.4477 74.9999 62 74.9999H74C74.5523 74.9999 75 74.5522 75 73.9999V61.9999C75 61.4477 74.5523 60.9999 74 60.9999ZM62 59.9999C60.8954 59.9999 60 60.8954 60 61.9999V73.9999C60 75.1045 60.8954 75.9999 62 75.9999H74C75.1046 75.9999 76 75.1045 76 73.9999V61.9999C76 60.8954 75.1046 59.9999 74 59.9999H62ZM62 12C60.8954 12 60 12.8954 60 14V26C60 27.1046 60.8954 28 62 28H74C75.1046 28 76 27.1046 76 26V14C76 12.8954 75.1046 12 74 12H62Z" fill="#FCFCFC"/>
</svg>
