<svg width="80" height="80" viewBox="0 0 80 80" fill="none" xmlns="http://www.w3.org/2000/svg">
<g clip-path="url(#clip0)">
<g clip-path="url(#clip1)">
<path d="M54.5565 39.8362L54.3167 25.4421L41.4987 31.9886L41.7373 46.3828L54.5565 39.8362Z" fill="url(#paint0_linear)"/>
</g>
<g clip-path="url(#clip2)">
<path d="M41.4685 47.5086L41.2286 33.1145L28.4107 39.661L28.6492 54.0552L41.4685 47.5086Z" fill="url(#paint1_linear)"/>
</g>
<g clip-path="url(#clip3)">
<path d="M67.6446 33.0667L67.4047 18.6726L54.5868 25.2191L54.8253 39.6133L67.6446 33.0667Z" fill="url(#paint2_linear)"/>
</g>
<g clip-path="url(#clip4)">
<path d="M54.1052 26.0711L53.8654 11.677L41.0474 18.2235L41.286 32.6177L54.1052 26.0711Z" fill="url(#paint3_linear)"/>
</g>
<path d="M68.091 18.3083C68.0904 18.3061 68.0893 18.3038 68.0887 18.3016C68.087 18.2948 68.0825 18.2892 68.0803 18.2825C68.0792 18.2786 68.0769 18.2746 68.0752 18.2707C68.0634 18.237 68.0516 18.2038 68.0337 18.173C68.0258 18.1595 68.0146 18.1477 68.005 18.1348C68.0039 18.1331 68.0028 18.1314 68.0011 18.1297C67.9921 18.1173 67.9842 18.105 67.9736 18.0932C67.9635 18.0814 67.955 18.0685 67.9438 18.0578C67.9309 18.0449 67.914 18.0348 67.8994 18.023C67.8786 18.0061 67.8595 17.987 67.8359 17.973C67.8326 17.9713 67.8286 17.9707 67.8253 17.9685C67.8225 17.9668 67.8202 17.9646 67.8174 17.9629L54.7927 10.8604C54.7505 10.8295 54.7045 10.8037 54.6551 10.7857L41.6084 3.67707C41.4405 3.58551 41.2382 3.58551 41.0709 3.67707L27.9675 10.8183C27.7872 10.9166 27.6748 11.1059 27.6748 11.3115V25.2636L14.8624 32.2442C14.8439 32.2554 14.8287 32.2694 14.8119 32.2812C14.7967 32.2925 14.781 32.302 14.7669 32.3144C14.7175 32.3571 14.6748 32.4065 14.6434 32.4627C14.6417 32.4649 14.6394 32.4672 14.6377 32.4694C14.6344 32.4762 14.6344 32.4835 14.631 32.4902C14.6057 32.5419 14.5894 32.5964 14.5804 32.6537C14.5776 32.6711 14.5748 32.6868 14.5737 32.7042C14.5726 32.7155 14.5686 32.7261 14.5686 32.7385V47.0209C14.5686 47.2271 14.681 47.4158 14.8613 47.5147L27.9664 54.6559C27.9928 54.6699 28.0208 54.6778 28.0484 54.6879C28.0635 54.6935 28.0776 54.7008 28.0927 54.7053C28.1399 54.7171 28.1871 54.7239 28.2349 54.7239H28.2354C28.2832 54.7239 28.3309 54.7171 28.377 54.7053C28.3787 54.7053 28.3804 54.7053 28.382 54.7042C28.3927 54.7019 28.4017 54.6952 28.4118 54.6924C28.4174 54.6902 28.4225 54.6879 28.4275 54.6857C28.4534 54.6755 28.4798 54.6694 28.5045 54.6559L67.8174 33.2311C67.9977 33.1334 68.1101 32.9435 68.1101 32.7385V18.4561C68.1112 18.4055 68.1044 18.3555 68.091 18.3083ZM41.9011 18.7892L53.8849 12.2574V25.2636L41.9011 31.7925V18.7892ZM41.9011 33.0716L53.8849 26.5427V39.5443L41.9011 46.0761V33.0716ZM28.7983 40.2128L40.7776 33.6839V46.6878L28.7983 53.2156V40.2128ZM66.9877 32.4048L55.0084 38.9326V25.9304L66.9877 19.4014V32.4048Z" fill="url(#paint4_linear)"/>
<g clip-path="url(#clip5)">
<path d="M9.04896 67.9875H4.51549C4.34509 67.9875 4.22178 67.9494 4.14555 67.8732C4.06932 67.7969 4.0312 67.6736 4.0312 67.5032V58.786C4.0312 58.6156 4.06932 58.4923 4.14555 58.4161C4.22178 58.3399 4.34509 58.3018 4.51549 58.3018H9.04896C10.17 58.3018 11.0018 58.526 11.5444 58.9744C12.087 59.4228 12.3583 60.1134 12.3583 61.0461V65.2432C12.3583 66.1759 12.087 66.8665 11.5444 67.3149C11.0018 67.7633 10.17 67.9875 9.04896 67.9875ZM8.68575 60.8712H7.08491V65.445H8.68575C8.90098 65.445 9.06017 65.3912 9.16331 65.2836C9.26644 65.176 9.31801 65.01 9.31801 64.7858V61.5169C9.31801 61.2927 9.26644 61.129 9.16331 61.0259C9.06017 60.9227 8.90098 60.8712 8.68575 60.8712ZM20.7929 67.9875H14.551C14.3806 67.9875 14.2573 67.9494 14.1811 67.8732C14.1048 67.7969 14.0667 67.6736 14.0667 67.5032V58.786C14.0667 58.6156 14.1048 58.4923 14.1811 58.4161C14.2573 58.3399 14.3806 58.3018 14.551 58.3018H20.7929C20.9633 58.3018 21.0866 58.3399 21.1629 58.4161C21.2391 58.4923 21.2772 58.6156 21.2772 58.786V60.36C21.2772 60.5304 21.2391 60.6537 21.1629 60.7299C21.0866 60.8062 20.9633 60.8443 20.7929 60.8443H17.0801V61.8801H19.7033C19.8737 61.8801 19.997 61.9182 20.0732 61.9945C20.1495 62.0707 20.1876 62.194 20.1876 62.3644V63.8038C20.1876 63.9742 20.1495 64.0975 20.0732 64.1737C19.997 64.25 19.8737 64.2881 19.7033 64.2881H17.0801V65.445H20.7929C20.9633 65.445 21.0866 65.4831 21.1629 65.5594C21.2391 65.6356 21.2772 65.7589 21.2772 65.9293V67.5032C21.2772 67.6736 21.2391 67.7969 21.1629 67.8732C21.0866 67.9494 20.9633 67.9875 20.7929 67.9875ZM28.5953 67.9875H25.0977C24.9273 67.9875 24.7861 67.9561 24.674 67.8934C24.5619 67.8306 24.4744 67.714 24.4116 67.5436L23.0933 64.2477C23.0126 64.0504 22.9453 63.8778 22.8915 63.7298C22.8377 63.5818 22.7929 63.4406 22.757 63.3061C22.7211 63.1715 22.6965 63.0303 22.683 62.8823C22.6695 62.7343 22.6628 62.5527 22.6628 62.3375V58.786C22.6628 58.6156 22.7009 58.4923 22.7772 58.4161C22.8534 58.3399 22.9767 58.3018 23.1471 58.3018H25.286C25.4564 58.3018 25.5865 58.3399 25.6762 58.4161C25.7659 58.4923 25.8107 58.6156 25.8107 58.786V62.4989C25.8107 62.5886 25.8197 62.6783 25.8376 62.768C25.8555 62.8577 25.8824 62.9518 25.9183 63.0505L26.5506 64.9338C26.5775 65.0235 26.6089 65.084 26.6447 65.1154C26.6806 65.1468 26.7344 65.1625 26.8062 65.1625H26.9541C27.0259 65.1625 27.0797 65.1468 27.1156 65.1154C27.1515 65.084 27.1828 65.0235 27.2097 64.9338L27.842 63.037C27.8779 62.9384 27.9048 62.8442 27.9227 62.7545C27.9407 62.6648 27.9496 62.5752 27.9496 62.4855V58.786C27.9496 58.6156 27.9877 58.4923 28.064 58.4161C28.1402 58.3399 28.2635 58.3018 28.4339 58.3018H30.5459C30.7163 58.3018 30.8397 58.3399 30.9159 58.4161C30.9921 58.4923 31.0302 58.6156 31.0302 58.786V62.3375C31.0302 62.5527 31.0235 62.7343 31.0101 62.8823C30.9966 63.0303 30.9719 63.1715 30.9361 63.3061C30.9002 63.4406 30.8554 63.5818 30.8015 63.7298C30.7477 63.8778 30.6805 64.0504 30.5998 64.2477L29.2814 67.5436C29.2186 67.714 29.1312 67.8306 29.0191 67.8934C28.907 67.9561 28.7657 67.9875 28.5953 67.9875ZM41.1734 67.9875H39.1555C38.9851 67.9875 38.8618 67.9494 38.7856 67.8732C38.7093 67.7969 38.6712 67.6736 38.6712 67.5032V58.786C38.6712 58.6156 38.7093 58.4923 38.7856 58.4161C38.8618 58.3399 38.9851 58.3018 39.1555 58.3018H40.5546C40.725 58.3018 40.8707 58.3287 40.9918 58.3825C41.1128 58.4363 41.2317 58.5304 41.3482 58.665L43.958 61.6514V58.786C43.958 58.6156 43.9961 58.4923 44.0724 58.4161C44.1486 58.3399 44.2719 58.3018 44.4423 58.3018H46.4602C46.6306 58.3018 46.7539 58.3399 46.8301 58.4161C46.9063 58.4923 46.9445 58.6156 46.9445 58.786V67.5032C46.9445 67.6736 46.9063 67.7969 46.8301 67.8732C46.7539 67.9494 46.6306 67.9875 46.4602 67.9875H44.4423C44.2719 67.9875 44.1486 67.9494 44.0724 67.8732C43.9961 67.7969 43.958 67.6736 43.958 67.5032V65.8486L41.6577 63.0639V67.5032C41.6577 67.6736 41.6195 67.7969 41.5433 67.8732C41.4671 67.9494 41.3438 67.9875 41.1734 67.9875ZM57.0472 58.786V65.445C57.0472 65.8575 56.9867 66.232 56.8656 66.5683C56.7446 66.9046 56.5293 67.1916 56.2199 67.4292C55.9105 67.6669 55.4868 67.853 54.9487 67.9875C54.4106 68.122 53.7245 68.1893 52.8904 68.1893C52.0564 68.1893 51.3703 68.122 50.8322 67.9875C50.2941 67.853 49.8704 67.6669 49.561 67.4292C49.2516 67.1916 49.0363 66.9046 48.9152 66.5683C48.7942 66.232 48.7336 65.8575 48.7336 65.445V58.786C48.7336 58.6156 48.7717 58.4923 48.848 58.4161C48.9242 58.3399 49.0475 58.3018 49.2179 58.3018H51.33C51.5004 58.3018 51.6237 58.3399 51.6999 58.4161C51.7761 58.4923 51.8142 58.6156 51.8142 58.786V64.9204C51.8142 65.0997 51.8815 65.2499 52.016 65.371C52.1506 65.4921 52.451 65.5526 52.9173 65.5526C53.3927 65.5526 53.6976 65.4921 53.8321 65.371C53.9666 65.2499 54.0339 65.0997 54.0339 64.9204V58.786C54.0339 58.6156 54.072 58.4923 54.1482 58.4161C54.2245 58.3399 54.3478 58.3018 54.5182 58.3018H56.563C56.7333 58.3018 56.8567 58.3399 56.9329 58.4161C57.0091 58.4923 57.0472 58.6156 57.0472 58.786ZM66.168 67.9875H59.3207C59.1503 67.9875 59.027 67.9494 58.9508 67.8732C58.8745 67.7969 58.8364 67.6736 58.8364 67.5032V58.786C58.8364 58.6156 58.8745 58.4923 58.9508 58.4161C59.027 58.3399 59.1503 58.3018 59.3207 58.3018H61.4058C61.5762 58.3018 61.6995 58.3399 61.7758 58.4161C61.852 58.4923 61.8901 58.6156 61.8901 58.786V65.445H63.7331V63.2657C63.7331 63.0953 63.7712 62.972 63.8474 62.8958C63.9237 62.8195 64.047 62.7814 64.2174 62.7814H66.168C66.3384 62.7814 66.4617 62.8195 66.5379 62.8958C66.6142 62.972 66.6523 63.0953 66.6523 63.2657V67.5032C66.6523 67.6736 66.6142 67.7969 66.5379 67.8732C66.4617 67.9494 66.3384 67.9875 66.168 67.9875ZM75.5174 67.9875H68.6701C68.4997 67.9875 68.3764 67.9494 68.3002 67.8732C68.224 67.7969 68.1859 67.6736 68.1859 67.5032V58.786C68.1859 58.6156 68.224 58.4923 68.3002 58.4161C68.3764 58.3399 68.4997 58.3018 68.6701 58.3018H70.7553C70.9257 58.3018 71.049 58.3399 71.1252 58.4161C71.2014 58.4923 71.2396 58.6156 71.2396 58.786V65.445H73.0825V63.2657C73.0825 63.0953 73.1206 62.972 73.1969 62.8958C73.2731 62.8195 73.3964 62.7814 73.5668 62.7814H75.5174C75.6878 62.7814 75.8111 62.8195 75.8874 62.8958C75.9636 62.972 76.0017 63.0953 76.0017 63.2657V67.5032C76.0017 67.6736 75.9636 67.7969 75.8874 67.8732C75.8111 67.9494 75.6878 67.9875 75.5174 67.9875Z" fill="#FCFCFC"/>
</g>
<g clip-path="url(#clip6)">
<path d="M5.80613 77.5045H4.34063C4.22086 77.5045 4.1342 77.4777 4.08062 77.4241C4.02704 77.3706 4.00025 77.2839 4.00025 77.1641V71.0374C4.00025 70.9176 4.02704 70.8309 4.08062 70.7774C4.1342 70.7238 4.22086 70.697 4.34063 70.697H7.23381C8.09105 70.697 8.67725 70.8672 8.99241 71.2076C9.30757 71.5479 9.46515 71.9923 9.46515 72.5407V73.7509C9.46515 74.2993 9.30757 74.7437 8.99241 75.0841C8.67725 75.4244 8.09105 75.5946 7.23381 75.5946H6.1465V77.1641C6.1465 77.2839 6.11971 77.3706 6.06614 77.4241C6.01256 77.4777 5.92589 77.5045 5.80613 77.5045ZM6.97853 72.4651H6.12759V73.8927H6.97853C7.16132 73.8927 7.28108 73.8455 7.33781 73.7509C7.39454 73.6564 7.42291 73.5492 7.42291 73.4295V72.9284C7.42291 72.8086 7.39454 72.7014 7.33781 72.6069C7.28108 72.5123 7.16132 72.4651 6.97853 72.4651ZM13.2944 72.3989H12.5853V73.6091H13.2944C13.4583 73.6091 13.5686 73.5666 13.6253 73.4815C13.682 73.3964 13.7104 73.2908 13.7104 73.1647V72.8433C13.7104 72.7172 13.682 72.6116 13.6253 72.5265C13.5686 72.4414 13.4583 72.3989 13.2944 72.3989ZM12.2449 77.5045H10.7888C10.6691 77.5045 10.5824 77.4777 10.5288 77.4241C10.4752 77.3706 10.4485 77.2839 10.4485 77.1641V71.0374C10.4485 70.9176 10.4752 70.8309 10.5288 70.7774C10.5824 70.7238 10.6691 70.697 10.7888 70.697H13.9373C14.6433 70.697 15.1302 70.8435 15.3981 71.1367C15.666 71.4298 15.7999 71.8095 15.7999 72.276V72.7109C15.7999 72.9756 15.7605 73.201 15.6817 73.3869C15.6029 73.5729 15.4658 73.7068 15.2704 73.7887C15.6108 73.8266 15.8866 73.9652 16.0977 74.2048C16.3089 74.4443 16.4145 74.7626 16.4145 75.1597V77.1641C16.4145 77.2839 16.3877 77.3706 16.3341 77.4241C16.2805 77.4777 16.1939 77.5045 16.0741 77.5045H14.6086C14.4888 77.5045 14.4022 77.4777 14.3486 77.4241C14.295 77.3706 14.2682 77.2839 14.2682 77.1641V75.7175C14.2682 75.5789 14.2414 75.4764 14.1879 75.4103C14.1343 75.3441 14.0413 75.311 13.9089 75.311H12.5853V77.1641C12.5853 77.2839 12.5585 77.3706 12.5049 77.4241C12.4513 77.4777 12.3646 77.5045 12.2449 77.5045ZM23.1936 72.4934V75.7175C23.1936 76.0075 23.1511 76.2707 23.066 76.507C22.9809 76.7434 22.8296 76.9451 22.6121 77.1121C22.3947 77.2792 22.0953 77.41 21.7139 77.5045C21.3326 77.5991 20.8488 77.6463 20.2626 77.6463C19.6764 77.6463 19.191 77.5991 18.8065 77.5045C18.422 77.41 18.1211 77.2792 17.9036 77.1121C17.6861 76.9451 17.5349 76.7434 17.4498 76.507C17.3647 76.2707 17.3221 76.0075 17.3221 75.7175V72.4934C17.3221 72.2035 17.3647 71.9403 17.4498 71.7039C17.5349 71.4676 17.6861 71.2643 17.9036 71.0941C18.1211 70.9239 18.422 70.7915 18.8065 70.697C19.191 70.6025 19.6764 70.5552 20.2626 70.5552C20.8488 70.5552 21.3326 70.6025 21.7139 70.697C22.0953 70.7915 22.3947 70.9239 22.6121 71.0941C22.8296 71.2643 22.9809 71.4676 23.066 71.7039C23.1511 71.9403 23.1936 72.2035 23.1936 72.4934ZM19.4684 72.8338V75.3772C19.4684 75.5032 19.5157 75.6088 19.6102 75.6939C19.7048 75.779 19.9222 75.8215 20.2626 75.8215C20.603 75.8215 20.8204 75.779 20.915 75.6939C21.0095 75.6088 21.0568 75.5032 21.0568 75.3772V72.8338C21.0568 72.714 21.0095 72.6116 20.915 72.5265C20.8204 72.4414 20.603 72.3989 20.2626 72.3989C19.9222 72.3989 19.7048 72.4414 19.6102 72.5265C19.5157 72.6116 19.4684 72.714 19.4684 72.8338ZM27.921 77.5045H24.7347C24.615 77.5045 24.5283 77.4777 24.4747 77.4241C24.4212 77.3706 24.3944 77.2839 24.3944 77.1641V71.0374C24.3944 70.9176 24.4212 70.8309 24.4747 70.7774C24.5283 70.7238 24.615 70.697 24.7347 70.697H27.921C28.7089 70.697 29.2936 70.8546 29.6749 71.1697C30.0562 71.4849 30.2469 71.9703 30.2469 72.6258V75.5757C30.2469 76.2313 30.0562 76.7166 29.6749 77.0318C29.2936 77.3469 28.7089 77.5045 27.921 77.5045ZM27.6657 72.5029H26.5406V75.7175H27.6657C27.817 75.7175 27.9289 75.6797 28.0014 75.6041C28.0739 75.5284 28.1101 75.4118 28.1101 75.2543V72.9567C28.1101 72.7991 28.0739 72.6841 28.0014 72.6116C27.9289 72.5391 27.817 72.5029 27.6657 72.5029ZM37.2435 71.0374V75.7175C37.2435 76.0075 37.201 76.2707 37.1159 76.507C37.0308 76.7434 36.8795 76.9451 36.662 77.1121C36.4446 77.2792 36.1467 77.41 35.7685 77.5045C35.3904 77.5991 34.9082 77.6463 34.322 77.6463C33.7358 77.6463 33.2536 77.5991 32.8754 77.5045C32.4972 77.41 32.1993 77.2792 31.9819 77.1121C31.7644 76.9451 31.6131 76.7434 31.528 76.507C31.443 76.2707 31.4004 76.0075 31.4004 75.7175V71.0374C31.4004 70.9176 31.4272 70.8309 31.4808 70.7774C31.5343 70.7238 31.621 70.697 31.7408 70.697H33.2252C33.345 70.697 33.4316 70.7238 33.4852 70.7774C33.5388 70.8309 33.5656 70.9176 33.5656 71.0374V75.3488C33.5656 75.4749 33.6128 75.5804 33.7074 75.6655C33.8019 75.7506 34.0131 75.7932 34.3409 75.7932C34.6749 75.7932 34.8892 75.7506 34.9838 75.6655C35.0783 75.5804 35.1256 75.4749 35.1256 75.3488V71.0374C35.1256 70.9176 35.1524 70.8309 35.206 70.7774C35.2596 70.7238 35.3462 70.697 35.466 70.697H36.9031C37.0229 70.697 37.1096 70.7238 37.1631 70.7774C37.2167 70.8309 37.2435 70.9176 37.2435 71.0374ZM43.0299 77.5045H40.7229C39.935 77.5045 39.3504 77.3469 38.969 77.0318C38.5877 76.7166 38.397 76.2313 38.397 75.5757V72.6353C38.397 71.9797 38.5877 71.4928 38.969 71.1745C39.3504 70.8562 39.935 70.697 40.7229 70.697H43.0299C43.1496 70.697 43.2363 70.7238 43.2899 70.7774C43.3435 70.8309 43.3702 70.9176 43.3702 71.0374V72.1814C43.3702 72.3012 43.3435 72.3878 43.2899 72.4414C43.2363 72.495 43.1496 72.5218 43.0299 72.5218H41.1294C40.934 72.5218 40.7891 72.5612 40.6945 72.64C40.6 72.7188 40.5527 72.837 40.5527 72.9945V75.2448C40.5527 75.4024 40.6 75.5174 40.6945 75.5899C40.7891 75.6624 40.934 75.6986 41.1294 75.6986H43.0299C43.1496 75.6986 43.2363 75.7254 43.2899 75.779C43.3435 75.8326 43.3702 75.9192 43.3702 76.039V77.1641C43.3702 77.2839 43.3435 77.3706 43.2899 77.4241C43.2363 77.4777 43.1496 77.5045 43.0299 77.5045ZM47.6533 77.5045H46.1216C46.0018 77.5045 45.9152 77.4777 45.8616 77.4241C45.808 77.3706 45.7812 77.2839 45.7812 77.1641V72.5218H44.3914C44.2716 72.5218 44.1849 72.495 44.1314 72.4414C44.0778 72.3878 44.051 72.3012 44.051 72.1814V71.0374C44.051 70.9176 44.0778 70.8309 44.1314 70.7774C44.1849 70.7238 44.2716 70.697 44.3914 70.697H49.3835C49.5033 70.697 49.59 70.7238 49.6435 70.7774C49.6971 70.8309 49.7239 70.9176 49.7239 71.0374V72.1814C49.7239 72.3012 49.6971 72.3878 49.6435 72.4414C49.59 72.495 49.5033 72.5218 49.3835 72.5218H47.9937V77.1641C47.9937 77.2839 47.9669 77.3706 47.9133 77.4241C47.8597 77.4777 47.7731 77.5045 47.6533 77.5045ZM54.8579 77.5045H50.8301C50.7104 77.5045 50.6237 77.4777 50.5701 77.4241C50.5165 77.3706 50.4897 77.2839 50.4897 77.1641V76.039C50.4897 75.9192 50.5165 75.8326 50.5701 75.779C50.6237 75.7254 50.7104 75.6986 50.8301 75.6986H51.7661V72.5218H50.8301C50.7104 72.5218 50.6237 72.495 50.5701 72.4414C50.5165 72.3878 50.4897 72.3012 50.4897 72.1814V71.0374C50.4897 70.9176 50.5165 70.8309 50.5701 70.7774C50.6237 70.7238 50.7104 70.697 50.8301 70.697H54.8579C54.9776 70.697 55.0643 70.7238 55.1179 70.7774C55.1715 70.8309 55.1983 70.9176 55.1983 71.0374V72.1814C55.1983 72.3012 55.1715 72.3878 55.1179 72.4414C55.0643 72.495 54.9776 72.5218 54.8579 72.5218H53.9408V75.6986H54.8579C54.9776 75.6986 55.0643 75.7254 55.1179 75.779C55.1715 75.8326 55.1983 75.9192 55.1983 76.039V77.1641C55.1983 77.2839 55.1715 77.3706 55.1179 77.4241C55.0643 77.4777 54.9776 77.5045 54.8579 77.5045ZM62.1287 72.4934V75.7175C62.1287 76.0075 62.0861 76.2707 62.001 76.507C61.9159 76.7434 61.7647 76.9451 61.5472 77.1121C61.3297 77.2792 61.0303 77.41 60.649 77.5045C60.2676 77.5991 59.7839 77.6463 59.1977 77.6463C58.6115 77.6463 58.1261 77.5991 57.7416 77.5045C57.3571 77.41 57.0561 77.2792 56.8387 77.1121C56.6212 76.9451 56.4699 76.7434 56.3848 76.507C56.2998 76.2707 56.2572 76.0075 56.2572 75.7175V72.4934C56.2572 72.2035 56.2998 71.9403 56.3848 71.7039C56.4699 71.4676 56.6212 71.2643 56.8387 71.0941C57.0561 70.9239 57.3571 70.7915 57.7416 70.697C58.1261 70.6025 58.6115 70.5552 59.1977 70.5552C59.7839 70.5552 60.2676 70.6025 60.649 70.697C61.0303 70.7915 61.3297 70.9239 61.5472 71.0941C61.7647 71.2643 61.9159 71.4676 62.001 71.7039C62.0861 71.9403 62.1287 72.2035 62.1287 72.4934ZM58.4035 72.8338V75.3772C58.4035 75.5032 58.4507 75.6088 58.5453 75.6939C58.6398 75.779 58.8573 75.8215 59.1977 75.8215C59.538 75.8215 59.7555 75.779 59.85 75.6939C59.9446 75.6088 59.9919 75.5032 59.9919 75.3772V72.8338C59.9919 72.714 59.9446 72.6116 59.85 72.5265C59.7555 72.4414 59.538 72.3989 59.1977 72.3989C58.8573 72.3989 58.6398 72.4414 58.5453 72.5265C58.4507 72.6116 58.4035 72.714 58.4035 72.8338ZM65.088 77.5045H63.6698C63.55 77.5045 63.4634 77.4777 63.4098 77.4241C63.3562 77.3706 63.3294 77.2839 63.3294 77.1641V71.0374C63.3294 70.9176 63.3562 70.8309 63.4098 70.7774C63.4634 70.7238 63.55 70.697 63.6698 70.697H64.6531C64.7729 70.697 64.8753 70.7159 64.9604 70.7537C65.0455 70.7915 65.129 70.8577 65.2109 70.9523L67.0452 73.0513V71.0374C67.0452 70.9176 67.072 70.8309 67.1255 70.7774C67.1791 70.7238 67.2658 70.697 67.3856 70.697H68.8038C68.9235 70.697 69.0102 70.7238 69.0638 70.7774C69.1174 70.8309 69.1442 70.9176 69.1442 71.0374V77.1641C69.1442 77.2839 69.1174 77.3706 69.0638 77.4241C69.0102 77.4777 68.9235 77.5045 68.8038 77.5045H67.3856C67.2658 77.5045 67.1791 77.4777 67.1255 77.4241C67.072 77.3706 67.0452 77.2839 67.0452 77.1641V76.0012L65.4284 74.044V77.1641C65.4284 77.2839 65.4016 77.3706 65.348 77.4241C65.2945 77.4777 65.2078 77.5045 65.088 77.5045ZM73.6068 77.5045H70.6191C70.4994 77.5045 70.4127 77.4777 70.3591 77.4241C70.3055 77.3706 70.2787 77.2839 70.2787 77.1641V76.0579C70.2787 75.9382 70.3055 75.8515 70.3591 75.7979C70.4127 75.7443 70.4994 75.7175 70.6191 75.7175H73.1625C73.2444 75.7175 73.3059 75.6908 73.3468 75.6372C73.3878 75.5836 73.4083 75.519 73.4083 75.4434C73.4083 75.3362 73.3878 75.2574 73.3468 75.207C73.3059 75.1566 73.2444 75.1282 73.1625 75.1219L71.7442 74.9233C71.303 74.8603 70.9485 74.7153 70.6806 74.4884C70.4127 74.2615 70.2787 73.8833 70.2787 73.3538V72.3611C70.2787 71.8253 70.4521 71.414 70.7988 71.1272C71.1454 70.8404 71.6245 70.697 72.2359 70.697H74.8833C75.003 70.697 75.0897 70.7238 75.1433 70.7774C75.1968 70.8309 75.2236 70.9176 75.2236 71.0374V72.1625C75.2236 72.2823 75.1968 72.3689 75.1433 72.4225C75.0897 72.4761 75.003 72.5029 74.8833 72.5029H72.6803C72.5983 72.5029 72.5353 72.5297 72.4912 72.5832C72.4471 72.6368 72.425 72.7046 72.425 72.7865C72.425 72.8685 72.4471 72.9378 72.4912 72.9945C72.5353 73.0513 72.5983 73.0828 72.6803 73.0891L74.0891 73.2782C74.5303 73.3412 74.8864 73.4862 75.1574 73.7131C75.4285 73.94 75.564 74.3182 75.564 74.8477V75.8405C75.564 76.3762 75.3891 76.7875 75.0393 77.0743C74.6894 77.3611 74.212 77.5045 73.6068 77.5045Z" fill="#FCFCFC"/>
</g>
</g>
<defs>
<linearGradient id="paint0_linear" x1="41.4986" y1="31.9889" x2="54.5579" y2="39.8339" gradientUnits="userSpaceOnUse">
<stop stop-color="#78C0FF"/>
<stop offset="1" stop-color="#78C0FF"/>
</linearGradient>
<linearGradient id="paint1_linear" x1="28.4105" y1="39.6613" x2="41.4699" y2="47.5063" gradientUnits="userSpaceOnUse">
<stop stop-color="#96CEFF"/>
<stop offset="1" stop-color="#96CEFF"/>
</linearGradient>
<linearGradient id="paint2_linear" x1="54.5866" y1="25.2194" x2="67.646" y2="33.0643" gradientUnits="userSpaceOnUse">
<stop stop-color="#4C96D7"/>
<stop offset="1" stop-color="#4C96D7"/>
</linearGradient>
<linearGradient id="paint3_linear" x1="41.0472" y1="18.2238" x2="54.1066" y2="26.0688" gradientUnits="userSpaceOnUse">
<stop stop-color="#2F7BBD"/>
<stop offset="1" stop-color="#2F7BBD"/>
</linearGradient>
<linearGradient id="paint4_linear" x1="14.5686" y1="29.1661" x2="68.1102" y2="29.1661" gradientUnits="userSpaceOnUse">
<stop stop-color="#5EB4FF"/>
<stop offset="1" stop-color="#5EB4FF"/>
</linearGradient>
<clipPath id="clip0">
<rect width="80" height="80" fill="white"/>
</clipPath>
<clipPath id="clip1">
<rect width="16.2968" height="25.0911" fill="white" transform="matrix(0.857118 0.515119 -0.514947 0.857222 47.5036 20.9609)"/>
</clipPath>
<clipPath id="clip2">
<rect width="16.2969" height="25.0912" fill="white" transform="matrix(0.857118 0.51512 -0.514947 0.857222 34.4156 28.6333)"/>
</clipPath>
<clipPath id="clip3">
<rect width="16.2968" height="25.0911" fill="white" transform="matrix(0.857117 0.515121 -0.514946 0.857223 60.5916 14.1914)"/>
</clipPath>
<clipPath id="clip4">
<rect width="16.2969" height="25.0911" fill="white" transform="matrix(0.857118 0.51512 -0.514947 0.857222 47.0523 7.1958)"/>
</clipPath>
<clipPath id="clip5">
<rect width="73.5041" height="21.5239" fill="white" transform="translate(3.10293 57.8979)"/>
</clipPath>
<clipPath id="clip6">
<rect width="72.5943" height="15.1278" fill="white" transform="translate(3.34785 70.4136)"/>
</clipPath>
</defs>
</svg>
