<svg width="48" height="48" viewBox="0 0 48 48" fill="none" xmlns="http://www.w3.org/2000/svg">
<g clip-path="url(#clip0)">
<g clip-path="url(#clip1)">
<path d="M32.7339 23.9017L32.59 15.2652L24.8992 19.1932L25.0424 27.8297L32.7339 23.9017Z" fill="url(#paint0_linear)"/>
</g>
<g clip-path="url(#clip2)">
<path d="M24.8811 28.5053L24.7372 19.8688L17.0464 23.7967L17.1895 32.4332L24.8811 28.5053Z" fill="url(#paint1_linear)"/>
</g>
<g clip-path="url(#clip3)">
<path d="M40.5867 19.8397L40.4428 11.2032L32.752 15.1312L32.8952 23.7677L40.5867 19.8397Z" fill="url(#paint2_linear)"/>
</g>
<g clip-path="url(#clip4)">
<path d="M32.4631 15.643L32.3192 7.00646L24.6284 10.9344L24.7716 19.5709L32.4631 15.643Z" fill="url(#paint3_linear)"/>
</g>
<path d="M40.8546 10.985C40.8543 10.9836 40.8536 10.9823 40.8532 10.981C40.8522 10.9769 40.8495 10.9735 40.8482 10.9695C40.8475 10.9671 40.8462 10.9648 40.8452 10.9624C40.8381 10.9422 40.831 10.9223 40.8202 10.9038C40.8155 10.8957 40.8088 10.8886 40.803 10.8809C40.8024 10.8798 40.8017 10.8788 40.8007 10.8778C40.7953 10.8704 40.7906 10.863 40.7842 10.8559C40.7781 10.8488 40.773 10.8411 40.7663 10.8347C40.7585 10.8269 40.7484 10.8209 40.7397 10.8138C40.7272 10.8037 40.7157 10.7922 40.7016 10.7838C40.6996 10.7828 40.6972 10.7824 40.6952 10.7811C40.6935 10.7801 40.6921 10.7787 40.6905 10.7777L32.8756 6.51625C32.8503 6.49771 32.8227 6.48221 32.793 6.47142L24.9651 2.20624C24.8643 2.1513 24.743 2.1513 24.6425 2.20624L16.7805 6.49097C16.6723 6.54995 16.6049 6.66353 16.6049 6.78689V15.1582L8.91747 19.3465C8.90635 19.3532 8.89725 19.3617 8.88714 19.3687C8.87804 19.3755 8.8686 19.3812 8.86018 19.3886C8.83052 19.4142 8.8049 19.4439 8.78603 19.4776C8.78502 19.479 8.78367 19.4803 8.78266 19.4817C8.78064 19.4857 8.78064 19.4901 8.77861 19.4941C8.76345 19.5251 8.75367 19.5578 8.74828 19.5922C8.7466 19.6026 8.74491 19.6121 8.74424 19.6225C8.74356 19.6293 8.7412 19.6357 8.7412 19.6431V28.2126C8.7412 28.3362 8.80861 28.4495 8.9168 28.5088L16.7798 32.7935C16.7957 32.802 16.8125 32.8067 16.829 32.8127C16.8381 32.8161 16.8466 32.8205 16.8557 32.8232C16.884 32.8303 16.9123 32.8343 16.9409 32.8343H16.9413C16.9699 32.8343 16.9986 32.8303 17.0262 32.8232C17.0272 32.8232 17.0282 32.8232 17.0292 32.8225C17.0356 32.8212 17.041 32.8171 17.0471 32.8154C17.0505 32.8141 17.0535 32.8127 17.0565 32.8114C17.072 32.8053 17.0879 32.8016 17.1027 32.7935L40.6905 19.9387C40.7986 19.88 40.8661 19.7661 40.8661 19.6431V11.0736C40.8667 11.0433 40.8627 11.0133 40.8546 10.985ZM25.1407 11.2735L32.331 7.35445V15.1582L25.1407 19.0755V11.2735ZM25.1407 19.843L32.331 15.9256V23.7266L25.1407 27.6457V19.843ZM17.279 24.1277L24.4666 20.2103V28.0127L17.279 31.9294V24.1277ZM40.1927 19.4429L33.005 23.3596V15.5582L40.1927 11.6409V19.4429Z" fill="url(#paint4_linear)"/>
<g clip-path="url(#clip5)">
<path d="M5.42939 40.7924H2.70931C2.60707 40.7924 2.53308 40.7695 2.48735 40.7238C2.44161 40.6781 2.41874 40.6041 2.41874 40.5018V35.2715C2.41874 35.1693 2.44161 35.0953 2.48735 35.0496C2.53308 35.0038 2.60707 34.981 2.70931 34.981H5.42939C6.10202 34.981 6.6011 35.1155 6.92665 35.3845C7.2522 35.6536 7.41497 36.0679 7.41497 36.6275V39.1458C7.41497 39.7055 7.2522 40.1198 6.92665 40.3888C6.6011 40.6579 6.10202 40.7924 5.42939 40.7924ZM5.21146 36.5226H4.25096V39.2669H5.21146C5.34061 39.2669 5.43612 39.2346 5.498 39.17C5.55988 39.1055 5.59082 39.0059 5.59082 38.8714V36.91C5.59082 36.7755 5.55988 36.6773 5.498 36.6154C5.43612 36.5535 5.34061 36.5226 5.21146 36.5226ZM12.4758 40.7924H8.73062C8.62838 40.7924 8.55439 40.7695 8.50866 40.7238C8.46292 40.6781 8.44005 40.6041 8.44005 40.5018V35.2715C8.44005 35.1693 8.46292 35.0953 8.50866 35.0496C8.55439 35.0038 8.62838 34.981 8.73062 34.981H12.4758C12.578 34.981 12.652 35.0038 12.6977 35.0496C12.7435 35.0953 12.7664 35.1693 12.7664 35.2715V36.2159C12.7664 36.3181 12.7435 36.3921 12.6977 36.4379C12.652 36.4836 12.578 36.5065 12.4758 36.5065H10.2481V37.128H11.822C11.9242 37.128 11.9982 37.1508 12.044 37.1966C12.0897 37.2423 12.1126 37.3163 12.1126 37.4185V38.2822C12.1126 38.3844 12.0897 38.4584 12.044 38.5042C11.9982 38.5499 11.9242 38.5728 11.822 38.5728H10.2481V39.2669H12.4758C12.578 39.2669 12.652 39.2898 12.6977 39.3355C12.7435 39.3813 12.7664 39.4552 12.7664 39.5575V40.5018C12.7664 40.6041 12.7435 40.6781 12.6977 40.7238C12.652 40.7695 12.578 40.7924 12.4758 40.7924ZM17.1572 40.7924H15.0586C14.9564 40.7924 14.8717 40.7736 14.8044 40.7359C14.7371 40.6982 14.6847 40.6283 14.647 40.5261L13.856 38.5485C13.8076 38.4302 13.7672 38.3266 13.7349 38.2378C13.7026 38.149 13.6757 38.0643 13.6542 37.9835C13.6327 37.9028 13.6179 37.8181 13.6098 37.7293C13.6017 37.6405 13.5977 37.5315 13.5977 37.4024V35.2715C13.5977 35.1693 13.6206 35.0953 13.6663 35.0496C13.7121 35.0038 13.786 34.981 13.8883 34.981H15.1716C15.2739 34.981 15.3519 35.0038 15.4057 35.0496C15.4595 35.0953 15.4864 35.1693 15.4864 35.2715V37.4993C15.4864 37.5531 15.4918 37.6069 15.5026 37.6607C15.5133 37.7145 15.5295 37.771 15.551 37.8302L15.9304 38.9602C15.9465 39.014 15.9653 39.0503 15.9869 39.0692C16.0084 39.088 16.0407 39.0974 16.0837 39.0974H16.1725C16.2156 39.0974 16.2478 39.088 16.2694 39.0692C16.2909 39.0503 16.3097 39.014 16.3259 38.9602L16.7052 37.8221C16.7267 37.7629 16.7429 37.7064 16.7537 37.6526C16.7644 37.5988 16.7698 37.545 16.7698 37.4912V35.2715C16.7698 35.1693 16.7927 35.0953 16.8384 35.0496C16.8841 35.0038 16.9581 34.981 17.0604 34.981H18.3276C18.4298 34.981 18.5038 35.0038 18.5496 35.0496C18.5953 35.0953 18.6182 35.1693 18.6182 35.2715V37.4024C18.6182 37.5315 18.6141 37.6405 18.6061 37.7293C18.598 37.8181 18.5832 37.9028 18.5617 37.9835C18.5401 38.0643 18.5132 38.149 18.4809 38.2378C18.4487 38.3266 18.4083 38.4302 18.3599 38.5485L17.5689 40.5261C17.5312 40.6283 17.4787 40.6982 17.4115 40.7359C17.3442 40.7736 17.2595 40.7924 17.1572 40.7924ZM24.704 40.7924H23.4933C23.3911 40.7924 23.3171 40.7695 23.2714 40.7238C23.2256 40.6781 23.2027 40.6041 23.2027 40.5018V35.2715C23.2027 35.1693 23.2256 35.0953 23.2714 35.0496C23.3171 35.0038 23.3911 34.981 23.4933 34.981H24.3328C24.435 34.981 24.5224 34.9971 24.5951 35.0294C24.6677 35.0617 24.739 35.1182 24.809 35.1989L26.3748 36.9908V35.2715C26.3748 35.1693 26.3977 35.0953 26.4434 35.0496C26.4892 35.0038 26.5632 34.981 26.6654 34.981H27.8761C27.9784 34.981 28.0523 35.0038 28.0981 35.0496C28.1438 35.0953 28.1667 35.1693 28.1667 35.2715V40.5018C28.1667 40.6041 28.1438 40.6781 28.0981 40.7238C28.0523 40.7695 27.9784 40.7924 27.8761 40.7924H26.6654C26.5632 40.7924 26.4892 40.7695 26.4434 40.7238C26.3977 40.6781 26.3748 40.6041 26.3748 40.5018V39.5091L24.9946 37.8383V40.5018C24.9946 40.6041 24.9717 40.6781 24.926 40.7238C24.8803 40.7695 24.8063 40.7924 24.704 40.7924ZM34.2284 35.2715V39.2669C34.2284 39.5144 34.192 39.7391 34.1194 39.9409C34.0468 40.1427 33.9176 40.3149 33.732 40.4574C33.5463 40.6 33.2921 40.7117 32.9692 40.7924C32.6464 40.8731 32.2347 40.9135 31.7343 40.9135C31.2339 40.9135 30.8222 40.8731 30.4993 40.7924C30.1765 40.7117 29.9222 40.6 29.7366 40.4574C29.551 40.3149 29.4218 40.1427 29.3492 39.9409C29.2765 39.7391 29.2402 39.5144 29.2402 39.2669V35.2715C29.2402 35.1693 29.2631 35.0953 29.3088 35.0496C29.3545 35.0038 29.4285 34.981 29.5308 34.981H30.798C30.9002 34.981 30.9742 35.0038 31.02 35.0496C31.0657 35.0953 31.0886 35.1693 31.0886 35.2715V38.9521C31.0886 39.0597 31.1289 39.1499 31.2096 39.2225C31.2904 39.2952 31.4706 39.3315 31.7504 39.3315C32.0356 39.3315 32.2186 39.2952 32.2993 39.2225C32.38 39.1499 32.4204 39.0597 32.4204 38.9521V35.2715C32.4204 35.1693 32.4432 35.0953 32.489 35.0496C32.5347 35.0038 32.6087 34.981 32.7109 34.981H33.9378C34.04 34.981 34.114 35.0038 34.1598 35.0496C34.2055 35.0953 34.2284 35.1693 34.2284 35.2715ZM39.7008 40.7924H35.5924C35.4902 40.7924 35.4162 40.7695 35.3705 40.7238C35.3247 40.6781 35.3019 40.6041 35.3019 40.5018V35.2715C35.3019 35.1693 35.3247 35.0953 35.3705 35.0496C35.4162 35.0038 35.4902 34.981 35.5924 34.981H36.8435C36.9458 34.981 37.0197 35.0038 37.0655 35.0496C37.1112 35.0953 37.1341 35.1693 37.1341 35.2715V39.2669H38.2399V37.9593C38.2399 37.8571 38.2627 37.7831 38.3085 37.7374C38.3542 37.6916 38.4282 37.6688 38.5304 37.6688H39.7008C39.8031 37.6688 39.877 37.6916 39.9228 37.7374C39.9685 37.7831 39.9914 37.8571 39.9914 37.9593V40.5018C39.9914 40.6041 39.9685 40.6781 39.9228 40.7238C39.877 40.7695 39.8031 40.7924 39.7008 40.7924ZM45.3105 40.7924H41.2021C41.0999 40.7924 41.0259 40.7695 40.9801 40.7238C40.9344 40.6781 40.9115 40.6041 40.9115 40.5018V35.2715C40.9115 35.1693 40.9344 35.0953 40.9801 35.0496C41.0259 35.0038 41.0999 34.981 41.2021 34.981H42.4532C42.5554 34.981 42.6294 35.0038 42.6751 35.0496C42.7209 35.0953 42.7438 35.1693 42.7438 35.2715V39.2669H43.8495V37.9593C43.8495 37.8571 43.8724 37.7831 43.9181 37.7374C43.9639 37.6916 44.0379 37.6688 44.1401 37.6688H45.3105C45.4127 37.6688 45.4867 37.6916 45.5324 37.7374C45.5782 37.7831 45.601 37.8571 45.601 37.9593V40.5018C45.601 40.6041 45.5782 40.6781 45.5324 40.7238C45.4867 40.7695 45.4127 40.7924 45.3105 40.7924Z" fill="#121416"/>
</g>
<g clip-path="url(#clip6)">
<path d="M3.48367 46.5026H2.60437C2.53251 46.5026 2.48051 46.4866 2.44837 46.4544C2.41622 46.4223 2.40015 46.3703 2.40015 46.2984V42.6223C2.40015 42.5505 2.41622 42.4985 2.44837 42.4663C2.48051 42.4342 2.53251 42.4181 2.60437 42.4181H4.34028C4.85462 42.4181 5.20635 42.5202 5.39544 42.7244C5.58454 42.9287 5.67909 43.1953 5.67909 43.5243V44.2505C5.67909 44.5795 5.58454 44.8461 5.39544 45.0503C5.20635 45.2546 4.85462 45.3567 4.34028 45.3567H3.6879V46.2984C3.6879 46.3703 3.67182 46.4223 3.63968 46.4544C3.60753 46.4866 3.55553 46.5026 3.48367 46.5026ZM4.18711 43.4789H3.67655V44.3356H4.18711C4.29679 44.3356 4.36865 44.3072 4.40268 44.2505C4.43672 44.1937 4.45374 44.1294 4.45374 44.0576V43.7569C4.45374 43.6851 4.43672 43.6208 4.40268 43.564C4.36865 43.5073 4.29679 43.4789 4.18711 43.4789ZM7.97662 43.4392H7.55115V44.1654H7.97662C8.07495 44.1654 8.14113 44.1398 8.17517 44.0888C8.20921 44.0377 8.22622 43.9744 8.22622 43.8987V43.7059C8.22622 43.6302 8.20921 43.5669 8.17517 43.5158C8.14113 43.4648 8.07495 43.4392 7.97662 43.4392ZM7.34692 46.5026H6.4733C6.40144 46.5026 6.34944 46.4866 6.31729 46.4544C6.28514 46.4223 6.26907 46.3703 6.26907 46.2984V42.6223C6.26907 42.5505 6.28514 42.4985 6.31729 42.4663C6.34944 42.4342 6.40144 42.4181 6.4733 42.4181H8.36237C8.78595 42.4181 9.07811 42.506 9.23884 42.6819C9.39957 42.8578 9.47994 43.0856 9.47994 43.3655V43.6264C9.47994 43.7853 9.4563 43.9205 9.40903 44.0321C9.36175 44.1436 9.27949 44.224 9.16225 44.2732C9.36648 44.2958 9.53194 44.3791 9.65863 44.5228C9.78533 44.6665 9.84868 44.8575 9.84868 45.0957V46.2984C9.84868 46.3703 9.8326 46.4223 9.80046 46.4544C9.76831 46.4866 9.71631 46.5026 9.64445 46.5026H8.76515C8.69329 46.5026 8.64129 46.4866 8.60915 46.4544C8.577 46.4223 8.56093 46.3703 8.56093 46.2984V45.4304C8.56093 45.3472 8.54485 45.2858 8.51271 45.2461C8.48056 45.2064 8.42478 45.1865 8.34536 45.1865H7.55115V46.2984C7.55115 46.3703 7.53507 46.4223 7.50293 46.4544C7.47078 46.4866 7.41878 46.5026 7.34692 46.5026ZM13.9162 43.496V45.4304C13.9162 45.6044 13.8906 45.7623 13.8396 45.9041C13.7885 46.046 13.6977 46.167 13.5673 46.2672C13.4368 46.3674 13.2571 46.4459 13.0283 46.5026C12.7995 46.5594 12.5093 46.5877 12.1576 46.5877C11.8058 46.5877 11.5146 46.5594 11.2839 46.5026C11.0532 46.4459 10.8726 46.3674 10.7422 46.2672C10.6117 46.167 10.5209 46.046 10.4699 45.9041C10.4188 45.7623 10.3933 45.6044 10.3933 45.4304V43.496C10.3933 43.322 10.4188 43.1641 10.4699 43.0223C10.5209 42.8804 10.6117 42.7585 10.7422 42.6564C10.8726 42.5543 11.0532 42.4748 11.2839 42.4181C11.5146 42.3614 11.8058 42.333 12.1576 42.333C12.5093 42.333 12.7995 42.3614 13.0283 42.4181C13.2571 42.4748 13.4368 42.5543 13.5673 42.6564C13.6977 42.7585 13.7885 42.8804 13.8396 43.0223C13.8906 43.1641 13.9162 43.322 13.9162 43.496ZM11.681 43.7002V45.2262C11.681 45.3019 11.7094 45.3652 11.7661 45.4163C11.8228 45.4673 11.9533 45.4928 12.1576 45.4928C12.3618 45.4928 12.4923 45.4673 12.549 45.4163C12.6057 45.3652 12.6341 45.3019 12.6341 45.2262V43.7002C12.6341 43.6283 12.6057 43.5669 12.549 43.5158C12.4923 43.4648 12.3618 43.4392 12.1576 43.4392C11.9533 43.4392 11.8228 43.4648 11.7661 43.5158C11.7094 43.5669 11.681 43.6283 11.681 43.7002ZM16.7526 46.5026H14.8408C14.769 46.5026 14.717 46.4866 14.6848 46.4544C14.6527 46.4223 14.6366 46.3703 14.6366 46.2984V42.6223C14.6366 42.5505 14.6527 42.4985 14.6848 42.4663C14.717 42.4342 14.769 42.4181 14.8408 42.4181H16.7526C17.2253 42.4181 17.5761 42.5127 17.8049 42.7017C18.0337 42.8908 18.1481 43.1821 18.1481 43.5754V45.3453C18.1481 45.7387 18.0337 46.0299 17.8049 46.219C17.5761 46.4081 17.2253 46.5026 16.7526 46.5026ZM16.5994 43.5016H15.9244V45.4304H16.5994C16.6902 45.4304 16.7573 45.4077 16.8008 45.3624C16.8443 45.317 16.8661 45.247 16.8661 45.1525V43.7739C16.8661 43.6794 16.8443 43.6104 16.8008 43.5669C16.7573 43.5234 16.6902 43.5016 16.5994 43.5016ZM22.3461 42.6223V45.4304C22.3461 45.6044 22.3206 45.7623 22.2695 45.9041C22.2185 46.046 22.1277 46.167 21.9972 46.2672C21.8667 46.3674 21.688 46.4459 21.4611 46.5026C21.2342 46.5594 20.9449 46.5877 20.5932 46.5877C20.2414 46.5877 19.9521 46.5594 19.7252 46.5026C19.4983 46.4459 19.3196 46.3674 19.1891 46.2672C19.0586 46.167 18.9679 46.046 18.9168 45.9041C18.8658 45.7623 18.8402 45.6044 18.8402 45.4304V42.6223C18.8402 42.5505 18.8563 42.4985 18.8885 42.4663C18.9206 42.4342 18.9726 42.4181 19.0445 42.4181H19.9351C20.007 42.4181 20.059 42.4342 20.0911 42.4663C20.1233 42.4985 20.1393 42.5505 20.1393 42.6223V45.2092C20.1393 45.2848 20.1677 45.3482 20.2244 45.3992C20.2812 45.4503 20.4079 45.4758 20.6045 45.4758C20.805 45.4758 20.9335 45.4503 20.9903 45.3992C21.047 45.3482 21.0754 45.2848 21.0754 45.2092V42.6223C21.0754 42.5505 21.0914 42.4985 21.1236 42.4663C21.1557 42.4342 21.2077 42.4181 21.2796 42.4181H22.1419C22.2137 42.4181 22.2657 42.4342 22.2979 42.4663C22.33 42.4985 22.3461 42.5505 22.3461 42.6223ZM25.8179 46.5026H24.4337C23.961 46.5026 23.6102 46.4081 23.3814 46.219C23.1526 46.0299 23.0382 45.7387 23.0382 45.3453V43.5811C23.0382 43.1877 23.1526 42.8956 23.3814 42.7046C23.6102 42.5136 23.961 42.4181 24.4337 42.4181H25.8179C25.8898 42.4181 25.9418 42.4342 25.9739 42.4663C26.0061 42.4985 26.0221 42.5505 26.0221 42.6223V43.3088C26.0221 43.3806 26.0061 43.4326 25.9739 43.4648C25.9418 43.4969 25.8898 43.513 25.8179 43.513H24.6777C24.5604 43.513 24.4734 43.5366 24.4167 43.5839C24.36 43.6312 24.3316 43.7021 24.3316 43.7966V45.1468C24.3316 45.2413 24.36 45.3104 24.4167 45.3539C24.4734 45.3973 24.5604 45.4191 24.6777 45.4191H25.8179C25.8898 45.4191 25.9418 45.4352 25.9739 45.4673C26.0061 45.4995 26.0221 45.5515 26.0221 45.6233V46.2984C26.0221 46.3703 26.0061 46.4223 25.9739 46.4544C25.9418 46.4866 25.8898 46.5026 25.8179 46.5026ZM28.592 46.5026H27.673C27.6011 46.5026 27.5491 46.4866 27.517 46.4544C27.4848 46.4223 27.4687 46.3703 27.4687 46.2984V43.513H26.6348C26.563 43.513 26.511 43.4969 26.4788 43.4648C26.4467 43.4326 26.4306 43.3806 26.4306 43.3088V42.6223C26.4306 42.5505 26.4467 42.4985 26.4788 42.4663C26.511 42.4342 26.563 42.4181 26.6348 42.4181H29.6301C29.702 42.4181 29.754 42.4342 29.7861 42.4663C29.8183 42.4985 29.8343 42.5505 29.8343 42.6223V43.3088C29.8343 43.3806 29.8183 43.4326 29.7861 43.4648C29.754 43.4969 29.702 43.513 29.6301 43.513H28.7962V46.2984C28.7962 46.3703 28.7801 46.4223 28.748 46.4544C28.7158 46.4866 28.6638 46.5026 28.592 46.5026ZM32.9147 46.5026H30.4981C30.4262 46.5026 30.3742 46.4866 30.3421 46.4544C30.3099 46.4223 30.2938 46.3703 30.2938 46.2984V45.6233C30.2938 45.5515 30.3099 45.4995 30.3421 45.4673C30.3742 45.4352 30.4262 45.4191 30.4981 45.4191H31.0597V43.513H30.4981C30.4262 43.513 30.3742 43.4969 30.3421 43.4648C30.3099 43.4326 30.2938 43.3806 30.2938 43.3088V42.6223C30.2938 42.5505 30.3099 42.4985 30.3421 42.4663C30.3742 42.4342 30.4262 42.4181 30.4981 42.4181H32.9147C32.9866 42.4181 33.0386 42.4342 33.0707 42.4663C33.1029 42.4985 33.1189 42.5505 33.1189 42.6223V43.3088C33.1189 43.3806 33.1029 43.4326 33.0707 43.4648C33.0386 43.4969 32.9866 43.513 32.9147 43.513H32.3645V45.4191H32.9147C32.9866 45.4191 33.0386 45.4352 33.0707 45.4673C33.1029 45.4995 33.1189 45.5515 33.1189 45.6233V46.2984C33.1189 46.3703 33.1029 46.4223 33.0707 46.4544C33.0386 46.4866 32.9866 46.5026 32.9147 46.5026ZM37.2772 43.496V45.4304C37.2772 45.6044 37.2517 45.7623 37.2006 45.9041C37.1496 46.046 37.0588 46.167 36.9283 46.2672C36.7978 46.3674 36.6182 46.4459 36.3894 46.5026C36.1606 46.5594 35.8703 46.5877 35.5186 46.5877C35.1669 46.5877 34.8757 46.5594 34.645 46.5026C34.4143 46.4459 34.2337 46.3674 34.1032 46.2672C33.9727 46.167 33.882 46.046 33.8309 45.9041C33.7798 45.7623 33.7543 45.6044 33.7543 45.4304V43.496C33.7543 43.322 33.7798 43.1641 33.8309 43.0223C33.882 42.8804 33.9727 42.7585 34.1032 42.6564C34.2337 42.5543 34.4143 42.4748 34.645 42.4181C34.8757 42.3614 35.1669 42.333 35.5186 42.333C35.8703 42.333 36.1606 42.3614 36.3894 42.4181C36.6182 42.4748 36.7978 42.5543 36.9283 42.6564C37.0588 42.7585 37.1496 42.8804 37.2006 43.0223C37.2517 43.1641 37.2772 43.322 37.2772 43.496ZM35.0421 43.7002V45.2262C35.0421 45.3019 35.0704 45.3652 35.1272 45.4163C35.1839 45.4673 35.3144 45.4928 35.5186 45.4928C35.7228 45.4928 35.8533 45.4673 35.91 45.4163C35.9667 45.3652 35.9951 45.3019 35.9951 45.2262V43.7002C35.9951 43.6283 35.9667 43.5669 35.91 43.5158C35.8533 43.4648 35.7228 43.4392 35.5186 43.4392C35.3144 43.4392 35.1839 43.4648 35.1272 43.5158C35.0704 43.5669 35.0421 43.6283 35.0421 43.7002ZM39.0528 46.5026H38.2019C38.13 46.5026 38.078 46.4866 38.0459 46.4544C38.0137 46.4223 37.9977 46.3703 37.9977 46.2984V42.6223C37.9977 42.5505 38.0137 42.4985 38.0459 42.4663C38.078 42.4342 38.13 42.4181 38.2019 42.4181H38.7919C38.8637 42.4181 38.9252 42.4294 38.9762 42.4521C39.0273 42.4748 39.0774 42.5145 39.1266 42.5713L40.2271 43.8307V42.6223C40.2271 42.5505 40.2432 42.4985 40.2753 42.4663C40.3075 42.4342 40.3595 42.4181 40.4313 42.4181H41.2823C41.3541 42.4181 41.4061 42.4342 41.4383 42.4663C41.4704 42.4985 41.4865 42.5505 41.4865 42.6223V46.2984C41.4865 46.3703 41.4704 46.4223 41.4383 46.4544C41.4061 46.4866 41.3541 46.5026 41.2823 46.5026H40.4313C40.3595 46.5026 40.3075 46.4866 40.2753 46.4544C40.2432 46.4223 40.2271 46.3703 40.2271 46.2984V45.6006L39.257 44.4263V46.2984C39.257 46.3703 39.241 46.4223 39.2088 46.4544C39.1767 46.4866 39.1247 46.5026 39.0528 46.5026ZM44.1641 46.5026H42.3715C42.2996 46.5026 42.2476 46.4866 42.2155 46.4544C42.1833 46.4223 42.1672 46.3703 42.1672 46.2984V45.6347C42.1672 45.5628 42.1833 45.5108 42.2155 45.4787C42.2476 45.4465 42.2996 45.4304 42.3715 45.4304H43.8975C43.9466 45.4304 43.9835 45.4144 44.0081 45.3822C44.0327 45.3501 44.045 45.3113 44.045 45.2659C44.045 45.2016 44.0327 45.1544 44.0081 45.1241C43.9835 45.0938 43.9466 45.0768 43.8975 45.073L43.0465 44.9539C42.7818 44.9161 42.5691 44.8291 42.4083 44.693C42.2476 44.5568 42.1672 44.3299 42.1672 44.0122V43.4165C42.1672 43.0951 42.2712 42.8483 42.4793 42.6762C42.6873 42.5041 42.9747 42.4181 43.3415 42.4181H44.9299C45.0018 42.4181 45.0538 42.4342 45.0859 42.4663C45.1181 42.4985 45.1342 42.5505 45.1342 42.6223V43.2974C45.1342 43.3693 45.1181 43.4213 45.0859 43.4534C45.0538 43.4856 45.0018 43.5016 44.9299 43.5016H43.6082C43.559 43.5016 43.5212 43.5177 43.4947 43.5499C43.4682 43.582 43.455 43.6227 43.455 43.6718C43.455 43.721 43.4682 43.7626 43.4947 43.7966C43.5212 43.8307 43.559 43.8496 43.6082 43.8534L44.4534 43.9668C44.7182 44.0046 44.9318 44.0916 45.0945 44.2278C45.2571 44.3639 45.3384 44.5908 45.3384 44.9085V45.5042C45.3384 45.8257 45.2334 46.0724 45.0235 46.2445C44.8137 46.4166 44.5272 46.5026 44.1641 46.5026Z" fill="#121416"/>
</g>
</g>
<defs>
<linearGradient id="paint0_linear" x1="24.8991" y1="19.1933" x2="32.7347" y2="23.9003" gradientUnits="userSpaceOnUse">
<stop stop-color="#78C0FF"/>
<stop offset="1" stop-color="#78C0FF"/>
</linearGradient>
<linearGradient id="paint1_linear" x1="17.0463" y1="23.7969" x2="24.8819" y2="28.5039" gradientUnits="userSpaceOnUse">
<stop stop-color="#96CEFF"/>
<stop offset="1" stop-color="#96CEFF"/>
</linearGradient>
<linearGradient id="paint2_linear" x1="32.7519" y1="15.1313" x2="40.5876" y2="19.8383" gradientUnits="userSpaceOnUse">
<stop stop-color="#4C96D7"/>
<stop offset="1" stop-color="#4C96D7"/>
</linearGradient>
<linearGradient id="paint3_linear" x1="24.6283" y1="10.9346" x2="32.464" y2="15.6416" gradientUnits="userSpaceOnUse">
<stop stop-color="#2F7BBD"/>
<stop offset="1" stop-color="#2F7BBD"/>
</linearGradient>
<linearGradient id="paint4_linear" x1="8.7412" y1="17.4997" x2="40.8661" y2="17.4997" gradientUnits="userSpaceOnUse">
<stop stop-color="#5EB4FF"/>
<stop offset="1" stop-color="#5EB4FF"/>
</linearGradient>
<clipPath id="clip0">
<rect width="48" height="48" fill="white"/>
</clipPath>
<clipPath id="clip1">
<rect width="9.7781" height="15.0547" fill="white" transform="matrix(0.857119 0.515119 -0.514948 0.857221 28.5022 12.5767)"/>
</clipPath>
<clipPath id="clip2">
<rect width="9.77812" height="15.0547" fill="white" transform="matrix(0.857118 0.51512 -0.514947 0.857222 20.6493 17.1802)"/>
</clipPath>
<clipPath id="clip3">
<rect width="9.7781" height="15.0547" fill="white" transform="matrix(0.857117 0.515121 -0.514945 0.857223 36.355 8.51465)"/>
</clipPath>
<clipPath id="clip4">
<rect width="9.77811" height="15.0547" fill="white" transform="matrix(0.857118 0.515119 -0.514947 0.857222 28.2314 4.31787)"/>
</clipPath>
<clipPath id="clip5">
<rect width="44.1025" height="12.9143" fill="white" transform="translate(1.86175 34.7388)"/>
</clipPath>
<clipPath id="clip6">
<rect width="43.5566" height="9.07672" fill="white" transform="translate(2.0087 42.248)"/>
</clipPath>
</defs>
</svg>
