<svg width="125" height="125" viewBox="0 0 125 125" fill="none" xmlns="http://www.w3.org/2000/svg">
<g clip-path="url(#clip0)">
<g clip-path="url(#clip1)">
<path d="M85.2445 62.2444L84.8698 39.7536L64.8417 49.9825L65.2145 72.4734L85.2445 62.2444Z" fill="url(#paint0_linear)"/>
</g>
<g clip-path="url(#clip2)">
<path d="M64.7945 74.2325L64.4198 51.7416L44.3917 61.9706L44.7645 84.4615L64.7945 74.2325Z" fill="url(#paint1_linear)"/>
</g>
<g clip-path="url(#clip3)">
<path d="M105.695 51.6668L105.32 29.1759L85.2918 39.4049L85.6646 61.8958L105.695 51.6668Z" fill="url(#paint2_linear)"/>
</g>
<g clip-path="url(#clip4)">
<path d="M84.5394 40.7366L84.1647 18.2458L64.1366 28.4747L64.5094 50.9656L84.5394 40.7366Z" fill="url(#paint3_linear)"/>
</g>
<path d="M106.392 28.6072C106.391 28.6037 106.389 28.6002 106.389 28.5967C106.386 28.5861 106.379 28.5773 106.375 28.5668C106.374 28.5607 106.37 28.5545 106.368 28.5484C106.349 28.4957 106.331 28.4439 106.303 28.3957C106.29 28.3746 106.273 28.3562 106.258 28.336C106.256 28.3333 106.254 28.3307 106.252 28.3281C106.238 28.3088 106.225 28.2895 106.209 28.271C106.193 28.2526 106.18 28.2324 106.162 28.2157C106.142 28.1956 106.116 28.1798 106.093 28.1613C106.06 28.135 106.03 28.1051 105.994 28.0832C105.988 28.0806 105.982 28.0797 105.977 28.0762C105.973 28.0736 105.969 28.07 105.965 28.0674L85.6135 16.9698C85.5477 16.9215 85.4757 16.8812 85.3985 16.8531L65.0131 5.74585C64.7507 5.60278 64.4347 5.60278 64.1732 5.74585L43.6992 16.904C43.4174 17.0576 43.2419 17.3534 43.2419 17.6746V39.4748L23.2225 50.3819C23.1936 50.3995 23.1699 50.4214 23.1435 50.4399C23.1198 50.4574 23.0953 50.4723 23.0733 50.4917C22.9961 50.5584 22.9294 50.6356 22.8802 50.7234C22.8776 50.7269 22.8741 50.7304 22.8714 50.7339C22.8662 50.7444 22.8662 50.7558 22.8609 50.7664C22.8214 50.8471 22.796 50.9323 22.7819 51.0218C22.7775 51.049 22.7731 51.0736 22.7714 51.1008C22.7696 51.1183 22.7635 51.135 22.7635 51.1543V73.4706C22.7635 73.7927 22.939 74.0876 23.2208 74.2421L43.6974 85.4003C43.7387 85.4222 43.7825 85.4345 43.8256 85.4503C43.8493 85.4591 43.8712 85.4705 43.8949 85.4775C43.9686 85.4959 44.0423 85.5065 44.117 85.5065H44.1178C44.1924 85.5065 44.267 85.4959 44.339 85.4775C44.3416 85.4775 44.3443 85.4775 44.3469 85.4757C44.3636 85.4722 44.3776 85.4617 44.3934 85.4573C44.4022 85.4538 44.4101 85.4503 44.418 85.4468C44.4584 85.431 44.4996 85.4213 44.5382 85.4003L105.965 51.9241C106.246 51.7713 106.422 51.4747 106.422 51.1543V28.838C106.424 28.759 106.413 28.6809 106.392 28.6072ZM65.4704 29.3585L84.1952 19.1527V39.4748L65.4704 49.6763V29.3585ZM65.4704 51.6748L84.1952 41.4733V61.7885L65.4704 71.9943V51.6748ZM44.9973 62.8329L63.715 52.6315V72.9501L44.9973 83.1498V62.8329ZM104.668 50.633L85.9506 60.8327V40.5166L104.668 30.3152V50.633Z" fill="url(#paint4_linear)"/>
<path d="M14.139 104.73H7.05541C6.78916 104.73 6.59648 104.671 6.47737 104.551C6.35826 104.432 6.29871 104.24 6.29871 103.973V90.3528C6.29871 90.0865 6.35826 89.8938 6.47737 89.7747C6.59648 89.6556 6.78916 89.5961 7.05541 89.5961H14.139C15.8906 89.5961 17.1903 89.9464 18.0381 90.647C18.8858 91.3477 19.3097 92.4267 19.3097 93.884V100.442C19.3097 101.899 18.8858 102.978 18.0381 103.679C17.1903 104.38 15.8906 104.73 14.139 104.73ZM13.5714 93.6108H11.0701V100.757H13.5714C13.9077 100.757 14.1565 100.673 14.3176 100.505C14.4788 100.337 14.5593 100.078 14.5593 99.7274V94.6197C14.5593 94.2694 14.4788 94.0137 14.3176 93.8525C14.1565 93.6914 13.9077 93.6108 13.5714 93.6108ZM32.4889 104.73H22.7359C22.4697 104.73 22.277 104.671 22.1579 104.551C22.0388 104.432 21.9792 104.24 21.9792 103.973V90.3528C21.9792 90.0865 22.0388 89.8938 22.1579 89.7747C22.277 89.6556 22.4697 89.5961 22.7359 89.5961H32.4889C32.7552 89.5961 32.9478 89.6556 33.0669 89.7747C33.1861 89.8938 33.2456 90.0865 33.2456 90.3528V92.812C33.2456 93.0783 33.1861 93.271 33.0669 93.3901C32.9478 93.5092 32.7552 93.5687 32.4889 93.5687H26.6875V95.1872H30.7863C31.0526 95.1872 31.2453 95.2468 31.3644 95.3659C31.4835 95.485 31.543 95.6777 31.543 95.9439V98.193C31.543 98.4593 31.4835 98.6519 31.3644 98.7711C31.2453 98.8902 31.0526 98.9497 30.7863 98.9497H26.6875V100.757H32.4889C32.7552 100.757 32.9478 100.817 33.0669 100.936C33.1861 101.055 33.2456 101.248 33.2456 101.514V103.973C33.2456 104.24 33.1861 104.432 33.0669 104.551C32.9478 104.671 32.7552 104.73 32.4889 104.73ZM44.6802 104.73H39.2151C38.9489 104.73 38.7282 104.681 38.553 104.583C38.3779 104.485 38.2412 104.303 38.1431 104.036L36.0832 98.8867C35.9571 98.5784 35.852 98.3086 35.7679 98.0774C35.6839 97.8462 35.6138 97.6255 35.5577 97.4153C35.5017 97.2051 35.4632 96.9844 35.4421 96.7532C35.4211 96.522 35.4106 96.2382 35.4106 95.9019V90.3528C35.4106 90.0865 35.4702 89.8938 35.5893 89.7747C35.7084 89.6556 35.9011 89.5961 36.1673 89.5961H39.5094C39.7756 89.5961 39.9788 89.6556 40.119 89.7747C40.2591 89.8938 40.3292 90.0865 40.3292 90.3528V96.1541C40.3292 96.2943 40.3432 96.4344 40.3712 96.5745C40.3992 96.7147 40.4413 96.8618 40.4973 97.0159L41.4852 99.9587C41.5273 100.099 41.5763 100.193 41.6324 100.242C41.6884 100.291 41.7725 100.316 41.8846 100.316H42.1158C42.2279 100.316 42.312 100.291 42.368 100.242C42.4241 100.193 42.4731 100.099 42.5152 99.9587L43.5031 96.9949C43.5591 96.8408 43.6012 96.6936 43.6292 96.5535C43.6572 96.4134 43.6712 96.2732 43.6712 96.1331V90.3528C43.6712 90.0865 43.7308 89.8938 43.8499 89.7747C43.969 89.6556 44.1617 89.5961 44.4279 89.5961H47.728C47.9942 89.5961 48.1869 89.6556 48.306 89.7747C48.4251 89.8938 48.4847 90.0865 48.4847 90.3528V95.9019C48.4847 96.2382 48.4742 96.522 48.4532 96.7532C48.4321 96.9844 48.3936 97.2051 48.3376 97.4153C48.2815 97.6255 48.2114 97.8462 48.1274 98.0774C48.0433 98.3086 47.9382 98.5784 47.8121 98.8867L45.7522 104.036C45.6541 104.303 45.5175 104.485 45.3423 104.583C45.1671 104.681 44.9464 104.73 44.6802 104.73ZM64.3333 104.73H61.1804C60.9142 104.73 60.7215 104.671 60.6024 104.551C60.4833 104.432 60.4237 104.24 60.4237 103.973V90.3528C60.4237 90.0865 60.4833 89.8938 60.6024 89.7747C60.7215 89.6556 60.9142 89.5961 61.1804 89.5961H63.3664C63.6327 89.5961 63.8604 89.6381 64.0496 89.7222C64.2388 89.8063 64.4244 89.9534 64.6066 90.1636L68.6844 94.8299V90.3528C68.6844 90.0865 68.7439 89.8938 68.863 89.7747C68.9821 89.6556 69.1748 89.5961 69.4411 89.5961H72.594C72.8602 89.5961 73.0529 89.6556 73.172 89.7747C73.2911 89.8938 73.3507 90.0865 73.3507 90.3528V103.973C73.3507 104.24 73.2911 104.432 73.172 104.551C73.0529 104.671 72.8602 104.73 72.594 104.73H69.4411C69.1748 104.73 68.9821 104.671 68.863 104.551C68.7439 104.432 68.6844 104.24 68.6844 103.973V101.388L65.09 97.037V103.973C65.09 104.24 65.0305 104.432 64.9114 104.551C64.7923 104.671 64.5996 104.73 64.3333 104.73ZM89.1363 90.3528V100.757C89.1363 101.402 89.0417 101.987 88.8525 102.513C88.6633 103.038 88.327 103.486 87.8436 103.858C87.3601 104.229 86.698 104.52 85.8572 104.73C85.0165 104.94 83.9445 105.045 82.6413 105.045C81.3381 105.045 80.2661 104.94 79.4253 104.73C78.5845 104.52 77.9224 104.229 77.439 103.858C76.9555 103.486 76.6192 103.038 76.43 102.513C76.2408 101.987 76.1463 101.402 76.1463 100.757V90.3528C76.1463 90.0865 76.2058 89.8938 76.3249 89.7747C76.444 89.6556 76.6367 89.5961 76.903 89.5961H80.203C80.4693 89.5961 80.6619 89.6556 80.781 89.7747C80.9002 89.8938 80.9597 90.0865 80.9597 90.3528V99.9376C80.9597 100.218 81.0648 100.453 81.275 100.642C81.4852 100.831 81.9546 100.926 82.6833 100.926C83.426 100.926 83.9024 100.831 84.1126 100.642C84.3228 100.453 84.4279 100.218 84.4279 99.9376V90.3528C84.4279 90.0865 84.4875 89.8938 84.6066 89.7747C84.7257 89.6556 84.9184 89.5961 85.1846 89.5961H88.3796C88.6458 89.5961 88.8385 89.6556 88.9576 89.7747C89.0767 89.8938 89.1363 90.0865 89.1363 90.3528ZM103.387 104.73H92.6885C92.4223 104.73 92.2296 104.671 92.1105 104.551C91.9914 104.432 91.9318 104.24 91.9318 103.973V90.3528C91.9318 90.0865 91.9914 89.8938 92.1105 89.7747C92.2296 89.6556 92.4223 89.5961 92.6885 89.5961H95.9466C96.2128 89.5961 96.4055 89.6556 96.5246 89.7747C96.6437 89.8938 96.7033 90.0865 96.7033 90.3528V100.757H99.5829V97.3522C99.5829 97.086 99.6425 96.8933 99.7616 96.7742C99.8807 96.6551 100.073 96.5955 100.34 96.5955H103.387C103.654 96.5955 103.846 96.6551 103.965 96.7742C104.085 96.8933 104.144 97.086 104.144 97.3522V103.973C104.144 104.24 104.085 104.432 103.965 104.551C103.846 104.671 103.654 104.73 103.387 104.73ZM117.996 104.73H107.297C107.031 104.73 106.838 104.671 106.719 104.551C106.6 104.432 106.54 104.24 106.54 103.973V90.3528C106.54 90.0865 106.6 89.8938 106.719 89.7747C106.838 89.6556 107.031 89.5961 107.297 89.5961H110.555C110.821 89.5961 111.014 89.6556 111.133 89.7747C111.252 89.8938 111.312 90.0865 111.312 90.3528V100.757H114.191V97.3522C114.191 97.086 114.251 96.8933 114.37 96.7742C114.489 96.6551 114.682 96.5955 114.948 96.5955H117.996C118.262 96.5955 118.455 96.6551 118.574 96.7742C118.693 96.8933 118.753 97.086 118.753 97.3522V103.973C118.753 104.24 118.693 104.432 118.574 104.551C118.455 104.671 118.262 104.73 117.996 104.73Z" fill="#FCFCFC"/>
<g clip-path="url(#clip5)">
<path d="M9.07205 119.601H6.7822C6.59507 119.601 6.45965 119.559 6.37594 119.476C6.29222 119.392 6.25037 119.256 6.25037 119.069V109.496C6.25037 109.309 6.29222 109.174 6.37594 109.09C6.45965 109.006 6.59507 108.965 6.7822 108.965H11.3028C12.6422 108.965 13.5582 109.23 14.0506 109.762C14.5431 110.294 14.7893 110.988 14.7893 111.845V113.736C14.7893 114.593 14.5431 115.287 14.0506 115.819C13.5582 116.351 12.6422 116.617 11.3028 116.617H9.60388V119.069C9.60388 119.256 9.56203 119.392 9.47831 119.476C9.3946 119.559 9.25918 119.601 9.07205 119.601ZM10.9039 111.727H9.57434V113.958H10.9039C11.1895 113.958 11.3767 113.884 11.4653 113.736C11.5539 113.589 11.5983 113.421 11.5983 113.234V112.451C11.5983 112.264 11.5539 112.096 11.4653 111.949C11.3767 111.801 11.1895 111.727 10.9039 111.727ZM20.7724 111.624H19.6644V113.515H20.7724C21.0285 113.515 21.2008 113.448 21.2895 113.315C21.3781 113.182 21.4224 113.017 21.4224 112.82V112.318C21.4224 112.121 21.3781 111.956 21.2895 111.823C21.2008 111.69 21.0285 111.624 20.7724 111.624ZM19.1326 119.601H16.8575C16.6704 119.601 16.535 119.559 16.4513 119.476C16.3675 119.392 16.3257 119.256 16.3257 119.069V109.496C16.3257 109.309 16.3675 109.174 16.4513 109.09C16.535 109.006 16.6704 108.965 16.8575 108.965H21.777C22.8801 108.965 23.6409 109.194 24.0595 109.651C24.478 110.109 24.6873 110.703 24.6873 111.432V112.111C24.6873 112.525 24.6258 112.877 24.5027 113.167C24.3795 113.458 24.1653 113.667 23.86 113.795C24.3919 113.854 24.8227 114.071 25.1527 114.445C25.4826 114.82 25.6476 115.317 25.6476 115.937V119.069C25.6476 119.256 25.6057 119.392 25.522 119.476C25.4383 119.559 25.3029 119.601 25.1157 119.601H22.8259C22.6388 119.601 22.5033 119.559 22.4196 119.476C22.3359 119.392 22.2941 119.256 22.2941 119.069V116.809C22.2941 116.592 22.2522 116.432 22.1685 116.329C22.0848 116.226 21.9395 116.174 21.7327 116.174H19.6644V119.069C19.6644 119.256 19.6226 119.392 19.5389 119.476C19.4551 119.559 19.3197 119.601 19.1326 119.601ZM36.24 111.771V116.809C36.24 117.262 36.1735 117.673 36.0405 118.043C35.9076 118.412 35.6712 118.727 35.3314 118.988C34.9916 119.249 34.5238 119.453 33.928 119.601C33.3321 119.749 32.5762 119.823 31.6603 119.823C30.7443 119.823 29.986 119.749 29.3852 119.601C28.7844 119.453 28.3141 119.249 27.9744 118.988C27.6346 118.727 27.3982 118.412 27.2652 118.043C27.1323 117.673 27.0658 117.262 27.0658 116.809V111.771C27.0658 111.318 27.1323 110.907 27.2652 110.538C27.3982 110.169 27.6346 109.851 27.9744 109.585C28.3141 109.319 28.7844 109.112 29.3852 108.965C29.986 108.817 30.7443 108.743 31.6603 108.743C32.5762 108.743 33.3321 108.817 33.928 108.965C34.5238 109.112 34.9916 109.319 35.3314 109.585C35.6712 109.851 35.9076 110.169 36.0405 110.538C36.1735 110.907 36.24 111.318 36.24 111.771ZM30.4193 112.303V116.277C30.4193 116.474 30.4932 116.639 30.6409 116.772C30.7887 116.905 31.1284 116.972 31.6603 116.972C32.1921 116.972 32.5319 116.905 32.6796 116.772C32.8274 116.639 32.9012 116.474 32.9012 116.277V112.303C32.9012 112.116 32.8274 111.956 32.6796 111.823C32.5319 111.69 32.1921 111.624 31.6603 111.624C31.1284 111.624 30.7887 111.69 30.6409 111.823C30.4932 111.956 30.4193 112.116 30.4193 112.303ZM43.6266 119.601H38.648C38.4609 119.601 38.3255 119.559 38.2417 119.476C38.158 119.392 38.1162 119.256 38.1162 119.069V109.496C38.1162 109.309 38.158 109.174 38.2417 109.09C38.3255 109.006 38.4609 108.965 38.648 108.965H43.6266C44.8577 108.965 45.7711 109.211 46.367 109.703C46.9629 110.196 47.2608 110.954 47.2608 111.978V116.587C47.2608 117.612 46.9629 118.37 46.367 118.863C45.7711 119.355 44.8577 119.601 43.6266 119.601ZM43.2277 111.786H41.4697V116.809H43.2277C43.4641 116.809 43.6389 116.75 43.7521 116.632C43.8654 116.514 43.922 116.331 43.922 116.085V112.495C43.922 112.249 43.8654 112.069 43.7521 111.956C43.6389 111.843 43.4641 111.786 43.2277 111.786ZM58.1929 109.496V116.809C58.1929 117.262 58.1265 117.673 57.9935 118.043C57.8605 118.412 57.6242 118.727 57.2844 118.988C56.9446 119.249 56.4793 119.453 55.8883 119.601C55.2974 119.749 54.544 119.823 53.628 119.823C52.7121 119.823 51.9587 119.749 51.3677 119.601C50.7768 119.453 50.3114 119.249 49.9717 118.988C49.6319 118.727 49.3955 118.412 49.2625 118.043C49.1296 117.673 49.0631 117.262 49.0631 116.809V109.496C49.0631 109.309 49.105 109.174 49.1887 109.09C49.2724 109.006 49.4078 108.965 49.5949 108.965H51.9143C52.1015 108.965 52.2369 109.006 52.3206 109.09C52.4043 109.174 52.4462 109.309 52.4462 109.496V116.233C52.4462 116.43 52.52 116.595 52.6678 116.728C52.8155 116.861 53.1454 116.927 53.6576 116.927C54.1796 116.927 54.5144 116.861 54.6622 116.728C54.8099 116.595 54.8837 116.43 54.8837 116.233V109.496C54.8837 109.309 54.9256 109.174 55.0093 109.09C55.093 109.006 55.2285 108.965 55.4156 108.965H57.6611C57.8482 108.965 57.9837 109.006 58.0674 109.09C58.1511 109.174 58.1929 109.309 58.1929 109.496ZM67.2341 119.601H63.6295C62.3984 119.601 61.4849 119.355 60.8891 118.863C60.2932 118.37 59.9953 117.612 59.9953 116.587V111.993C59.9953 110.969 60.2932 110.208 60.8891 109.711C61.4849 109.213 62.3984 108.965 63.6295 108.965H67.2341C67.4213 108.965 67.5567 109.006 67.6404 109.09C67.7241 109.174 67.766 109.309 67.766 109.496V111.284C67.766 111.471 67.7241 111.606 67.6404 111.69C67.5567 111.774 67.4213 111.816 67.2341 111.816H64.2647C63.9594 111.816 63.7329 111.877 63.5852 112C63.4374 112.124 63.3636 112.308 63.3636 112.554V116.07C63.3636 116.317 63.4374 116.496 63.5852 116.61C63.7329 116.723 63.9594 116.78 64.2647 116.78H67.2341C67.4213 116.78 67.5567 116.821 67.6404 116.905C67.7241 116.989 67.766 117.124 67.766 117.311V119.069C67.766 119.256 67.7241 119.392 67.6404 119.476C67.5567 119.559 67.4213 119.601 67.2341 119.601ZM74.4582 119.601H72.065C71.8779 119.601 71.7424 119.559 71.6587 119.476C71.575 119.392 71.5331 119.256 71.5331 119.069V111.816H69.3615C69.1744 111.816 69.0389 111.774 68.9552 111.69C68.8715 111.606 68.8297 111.471 68.8297 111.284V109.496C68.8297 109.309 68.8715 109.174 68.9552 109.09C69.0389 109.006 69.1744 108.965 69.3615 108.965H77.1617C77.3489 108.965 77.4843 109.006 77.568 109.09C77.6517 109.174 77.6936 109.309 77.6936 109.496V111.284C77.6936 111.471 77.6517 111.606 77.568 111.69C77.4843 111.774 77.3489 111.816 77.1617 111.816H74.9901V119.069C74.9901 119.256 74.9482 119.392 74.8645 119.476C74.7808 119.559 74.6454 119.601 74.4582 119.601ZM85.7154 119.601H79.422C79.2349 119.601 79.0995 119.559 79.0158 119.476C78.9321 119.392 78.8902 119.256 78.8902 119.069V117.311C78.8902 117.124 78.9321 116.989 79.0158 116.905C79.0995 116.821 79.2349 116.78 79.422 116.78H80.8846V111.816H79.422C79.2349 111.816 79.0995 111.774 79.0158 111.69C78.9321 111.606 78.8902 111.471 78.8902 111.284V109.496C78.8902 109.309 78.9321 109.174 79.0158 109.09C79.0995 109.006 79.2349 108.965 79.422 108.965H85.7154C85.9025 108.965 86.038 109.006 86.1217 109.09C86.2054 109.174 86.2473 109.309 86.2473 109.496V111.284C86.2473 111.471 86.2054 111.606 86.1217 111.69C86.038 111.774 85.9025 111.816 85.7154 111.816H84.2824V116.78H85.7154C85.9025 116.78 86.038 116.821 86.1217 116.905C86.2054 116.989 86.2473 117.124 86.2473 117.311V119.069C86.2473 119.256 86.2054 119.392 86.1217 119.476C86.038 119.559 85.9025 119.601 85.7154 119.601ZM97.076 111.771V116.809C97.076 117.262 97.0095 117.673 96.8766 118.043C96.7436 118.412 96.5072 118.727 96.1675 118.988C95.8277 119.249 95.3599 119.453 94.764 119.601C94.1681 119.749 93.4123 119.823 92.4963 119.823C91.5804 119.823 90.822 119.749 90.2212 119.601C89.6205 119.453 89.1502 119.249 88.8104 118.988C88.4706 118.727 88.2342 118.412 88.1013 118.043C87.9683 117.673 87.9018 117.262 87.9018 116.809V111.771C87.9018 111.318 87.9683 110.907 88.1013 110.538C88.2342 110.169 88.4706 109.851 88.8104 109.585C89.1502 109.319 89.6205 109.112 90.2212 108.965C90.822 108.817 91.5804 108.743 92.4963 108.743C93.4123 108.743 94.1681 108.817 94.764 108.965C95.3599 109.112 95.8277 109.319 96.1675 109.585C96.5072 109.851 96.7436 110.169 96.8766 110.538C97.0095 110.907 97.076 111.318 97.076 111.771ZM91.2554 112.303V116.277C91.2554 116.474 91.3292 116.639 91.477 116.772C91.6247 116.905 91.9645 116.972 92.4963 116.972C93.0282 116.972 93.3679 116.905 93.5157 116.772C93.6634 116.639 93.7373 116.474 93.7373 116.277V112.303C93.7373 112.116 93.6634 111.956 93.5157 111.823C93.3679 111.69 93.0282 111.624 92.4963 111.624C91.9645 111.624 91.6247 111.69 91.477 111.823C91.3292 111.956 91.2554 112.116 91.2554 112.303ZM101.7 119.601H99.484C99.2969 119.601 99.1615 119.559 99.0778 119.476C98.9941 119.392 98.9522 119.256 98.9522 119.069V109.496C98.9522 109.309 98.9941 109.174 99.0778 109.09C99.1615 109.006 99.2969 108.965 99.484 108.965H101.02C101.208 108.965 101.368 108.994 101.501 109.053C101.634 109.112 101.764 109.216 101.892 109.363L104.758 112.643V109.496C104.758 109.309 104.8 109.174 104.884 109.09C104.967 109.006 105.103 108.965 105.29 108.965H107.506C107.693 108.965 107.828 109.006 107.912 109.09C107.996 109.174 108.038 109.309 108.038 109.496V119.069C108.038 119.256 107.996 119.392 107.912 119.476C107.828 119.559 107.693 119.601 107.506 119.601H105.29C105.103 119.601 104.967 119.559 104.884 119.476C104.8 119.392 104.758 119.256 104.758 119.069V117.252L102.232 114.194V119.069C102.232 119.256 102.19 119.392 102.106 119.476C102.023 119.559 101.887 119.601 101.7 119.601ZM115.011 119.601H110.342C110.155 119.601 110.02 119.559 109.936 119.476C109.852 119.392 109.811 119.256 109.811 119.069V117.341C109.811 117.154 109.852 117.018 109.936 116.935C110.02 116.851 110.155 116.809 110.342 116.809H114.316C114.444 116.809 114.54 116.767 114.604 116.683C114.668 116.6 114.7 116.499 114.7 116.381C114.7 116.213 114.668 116.09 114.604 116.011C114.54 115.933 114.444 115.888 114.316 115.878L112.1 115.568C111.411 115.47 110.857 115.243 110.438 114.889C110.02 114.534 109.811 113.943 109.811 113.116V111.565C109.811 110.727 110.081 110.085 110.623 109.637C111.165 109.189 111.913 108.965 112.869 108.965H117.005C117.192 108.965 117.328 109.006 117.411 109.09C117.495 109.174 117.537 109.309 117.537 109.496V111.254C117.537 111.441 117.495 111.577 117.411 111.661C117.328 111.744 117.192 111.786 117.005 111.786H113.563C113.435 111.786 113.336 111.828 113.267 111.912C113.198 111.995 113.164 112.101 113.164 112.229C113.164 112.357 113.198 112.466 113.267 112.554C113.336 112.643 113.435 112.692 113.563 112.702L115.764 112.998C116.454 113.096 117.01 113.323 117.433 113.677C117.857 114.032 118.069 114.623 118.069 115.45V117.001C118.069 117.838 117.795 118.481 117.249 118.929C116.702 119.377 115.956 119.601 115.011 119.601Z" fill="#FCFCFC"/>
</g>
</g>
<defs>
<linearGradient id="paint0_linear" x1="64.8415" y1="49.983" x2="85.2468" y2="62.2407" gradientUnits="userSpaceOnUse">
<stop stop-color="#78C0FF"/>
<stop offset="1" stop-color="#78C0FF"/>
</linearGradient>
<linearGradient id="paint1_linear" x1="44.3915" y1="61.971" x2="64.7967" y2="74.2288" gradientUnits="userSpaceOnUse">
<stop stop-color="#96CEFF"/>
<stop offset="1" stop-color="#96CEFF"/>
</linearGradient>
<linearGradient id="paint2_linear" x1="85.2916" y1="39.4053" x2="105.697" y2="51.6631" gradientUnits="userSpaceOnUse">
<stop stop-color="#4C96D7"/>
<stop offset="1" stop-color="#4C96D7"/>
</linearGradient>
<linearGradient id="paint3_linear" x1="64.1363" y1="28.4752" x2="84.5416" y2="40.7329" gradientUnits="userSpaceOnUse">
<stop stop-color="#2F7BBD"/>
<stop offset="1" stop-color="#2F7BBD"/>
</linearGradient>
<linearGradient id="paint4_linear" x1="22.7635" y1="45.5725" x2="106.422" y2="45.5725" gradientUnits="userSpaceOnUse">
<stop stop-color="#5EB4FF"/>
<stop offset="1" stop-color="#5EB4FF"/>
</linearGradient>
<clipPath id="clip0">
<rect width="125" height="125" fill="white"/>
</clipPath>
<clipPath id="clip1">
<rect width="25.4638" height="39.2049" fill="white" transform="matrix(0.857118 0.51512 -0.514947 0.857222 74.2244 32.7518)"/>
</clipPath>
<clipPath id="clip2">
<rect width="25.4638" height="39.2049" fill="white" transform="matrix(0.857118 0.51512 -0.514947 0.857222 53.7744 44.7399)"/>
</clipPath>
<clipPath id="clip3">
<rect width="25.4638" height="39.2049" fill="white" transform="matrix(0.857118 0.515121 -0.514946 0.857223 94.6744 22.1742)"/>
</clipPath>
<clipPath id="clip4">
<rect width="25.4638" height="39.2049" fill="white" transform="matrix(0.857118 0.51512 -0.514947 0.857222 73.5192 11.244)"/>
</clipPath>
<clipPath id="clip5">
<rect width="113.429" height="23.6371" fill="white" transform="translate(5.23102 108.521)"/>
</clipPath>
</defs>
</svg>
