<svg width="88" height="88" viewBox="0 0 88 88" fill="none" xmlns="http://www.w3.org/2000/svg">
<path fill-rule="evenodd" clip-rule="evenodd" d="M73.7423 41.4507L68.0354 35.7438V52.2562L73.7423 46.5493C75.1502 45.1414 75.1502 42.8586 73.7423 41.4507ZM74.592 40.6009L68.0354 34.0442V24.7716C68.0354 22.1167 65.8832 19.9645 63.2283 19.9645H53.9557L47.3991 13.408C45.5218 11.5307 42.4782 11.5307 40.6009 13.408L34.0443 19.9645H24.7717C22.1168 19.9645 19.9646 22.1167 19.9646 24.7716V34.0442L13.408 40.6009C11.5307 42.4782 11.5307 45.5218 13.408 47.3991L19.9646 53.9558V63.2282C19.9646 65.8831 22.1168 68.0353 24.7717 68.0353H34.0441L40.6009 74.592C42.4782 76.4693 45.5218 76.4693 47.3991 74.592L53.9559 68.0353H63.2283C65.8832 68.0353 68.0354 65.8831 68.0354 63.2282V53.9558L74.592 47.3991C76.4693 45.5218 76.4693 42.4782 74.592 40.6009ZM63.2283 21.1663H55.1574L66.8336 32.8424V24.7716C66.8336 22.7804 65.2195 21.1663 63.2283 21.1663ZM66.8336 34.542L53.4579 21.1663H34.5421L21.1664 34.542V53.458L34.5419 66.8335H53.4581L66.8336 53.458V34.542ZM46.5493 14.2577L52.2561 19.9645H35.7439L41.4507 14.2577C42.8586 12.8498 45.1414 12.8498 46.5493 14.2577ZM24.7717 21.1663H32.8426L21.1664 32.8425V24.7716C21.1664 22.7804 22.7805 21.1663 24.7717 21.1663ZM14.2577 41.4507L19.9646 35.7438V52.2562L14.2577 46.5493C12.8498 45.1414 12.8498 42.8586 14.2577 41.4507ZM21.1664 63.2282V55.1575L32.8423 66.8335H24.7717C22.7805 66.8335 21.1664 65.2193 21.1664 63.2282ZM41.4507 73.7423L35.7437 68.0353H52.2563L46.5493 73.7423C45.1414 75.1502 42.8586 75.1502 41.4507 73.7423ZM63.2283 66.8335H55.1577L66.8336 55.1576V63.2282C66.8336 65.2193 65.2195 66.8335 63.2283 66.8335ZM55.6657 38.8408C56.135 38.3715 56.135 37.6106 55.6657 37.1413C55.1964 36.6719 54.4355 36.6719 53.9661 37.1413L42.7245 48.3829L36.357 43.0767C35.8471 42.6518 35.0893 42.7207 34.6644 43.2305C34.2395 43.7404 34.3084 44.4982 34.8183 44.9231L42.872 51.6345L55.6657 38.8408Z" fill="#FCFCFC"/>
</svg>
