<svg width="32" height="32" viewBox="0 0 32 32" fill="none" xmlns="http://www.w3.org/2000/svg">
<g clip-path="url(#clip0)">
<path d="M11.9382 29.1284C10.5544 29.1284 9.13013 29.0163 7.69727 28.7917C5.17358 28.3957 2.6189 27.0757 1.896 26.6804L0 25.6438L2.05273 24.9687C4.29663 24.2309 5.66162 23.7732 7.35132 23.0564C5.65942 22.237 4.35547 20.7631 3.72778 18.8579L3.25024 17.4082L3.64185 17.468C3.27051 17.0937 2.97729 16.7138 2.75 16.3684C1.94165 15.1406 1.51367 13.6403 1.60474 12.3547L1.69458 11.0893L2.45215 11.3828C2.13257 10.7793 1.90161 10.1347 1.76587 9.45919C1.43506 7.81173 1.71191 6.06149 2.54565 4.53097L3.20557 3.31954L4.08813 4.3796C6.87939 7.73263 10.4148 9.72164 14.6108 10.3039C14.4395 9.12252 14.5679 7.98239 14.9929 6.96041C15.4878 5.77047 16.3682 4.76144 17.5381 4.0422C18.8374 3.24362 20.4131 2.85665 21.9749 2.9526C23.6318 3.05441 25.1362 3.67526 26.3311 4.74923C26.9146 4.59762 27.3445 4.43576 27.9255 4.21701C28.2751 4.08541 28.6716 3.936 29.1677 3.7651L30.9958 3.13522L29.8037 6.54C29.8823 6.53341 29.9634 6.5278 30.0481 6.52413L32.0002 6.43576L30.8464 8.01266C30.7803 8.10299 30.7634 8.12863 30.74 8.16403C30.647 8.30416 30.5312 8.47848 28.9475 10.5932C28.551 11.1228 28.353 11.8125 28.3899 12.5356C28.5303 15.2837 28.1931 17.77 27.3872 19.9253C26.625 21.9643 25.4438 23.7138 23.877 25.1252C21.938 26.8713 19.4656 28.0669 16.5281 28.6782C15.0872 28.978 13.5398 29.1284 11.9382 29.1284Z" fill="#5EB4FF"/>
</g>
<defs>
<clipPath id="clip0">
<rect width="32.0001" height="32" fill="white"/>
</clipPath>
</defs>
</svg>
