<?xml version="1.0" encoding="UTF-8" standalone="no"?>
<svg
   xmlns:dc="http://purl.org/dc/elements/1.1/"
   xmlns:cc="http://creativecommons.org/ns#"
   xmlns:rdf="http://www.w3.org/1999/02/22-rdf-syntax-ns#"
   xmlns:svg="http://www.w3.org/2000/svg"
   xmlns="http://www.w3.org/2000/svg"
   xmlns:sodipodi="http://sodipodi.sourceforge.net/DTD/sodipodi-0.dtd"
   xmlns:inkscape="http://www.inkscape.org/namespaces/inkscape"
   class="thumb"
   width="1000"
   height="1000"
   viewBox="0,0,600,600"
   version="1.1"
   id="svg139"
   sodipodi:docname="logo.svg"
   inkscape:version="0.92.4 (unknown)">
  <metadata
     id="metadata143">
    <rdf:RDF>
      <cc:Work
         rdf:about="">
        <dc:format>image/svg+xml</dc:format>
        <dc:type
           rdf:resource="http://purl.org/dc/dcmitype/StillImage" />
      </cc:Work>
    </rdf:RDF>
  </metadata>
  <sodipodi:namedview
     pagecolor="#ffffff"
     bordercolor="#666666"
     borderopacity="1"
     objecttolerance="10"
     gridtolerance="10"
     guidetolerance="10"
     inkscape:pageopacity="0"
     inkscape:pageshadow="2"
     inkscape:window-width="3840"
     inkscape:window-height="2032"
     id="namedview141"
     showgrid="false"
     inkscape:zoom="1.888"
     inkscape:cx="582.42324"
     inkscape:cy="197.73618"
     inkscape:window-x="0"
     inkscape:window-y="54"
     inkscape:window-maximized="1"
     inkscape:current-layer="g137" />
  <defs
     id="defs2" />
  <g
     transform="matrix(1.0557,0,0,1.0557,-67.9855,89.1525)"
     id="g137">
    <g
       transform="matrix(0.4035,0.2425,-0.1512,0.2517,368.7271,89.8813)"
       id="g23">
      <svg
         width="153.41"
         height="378.69"
         viewBox="-5 -5 153.41 378.69"
         version="1.1"
         id="svg21">
        <defs
           id="defs9">
          <linearGradient
             x1="0"
             y1="0.5"
             x2="1"
             y2="0.5"
             id="linearGradientSke4dp1so4">
            <stop
               offset="0%"
               stop-color="#78c0ff"
               id="stop4" />
            <stop
               offset="100%"
               stop-color="#78c0ff"
               id="stop6" />
          </linearGradient>
        </defs>
        <g
           id="g11" />
        <g
           id="g13" />
        <g
           id="g15" />
        <g
           id="g19">
          <polygon
             points="143.41,184.34 71.7,0 0,184.34 71.7,368.69 "
             style="fill:url(#linearGradientSke4dp1so4);stroke:none"
             id="polygon17" />
        </g>
      </svg>
    </g>
    <g
       transform="matrix(0.4035,0.2425,-0.1512,0.2517,310.7271,123.8813)"
       id="g44">
      <svg
         width="153.41"
         height="378.69"
         viewBox="-5 -5 153.41 378.69"
         version="1.1"
         id="svg42">
        <defs
           id="defs30">
          <linearGradient
             x1="0"
             y1="0.5"
             x2="1"
             y2="0.5"
             id="linearGradientSke4dp1soa">
            <stop
               offset="0%"
               stop-color="#96ceff"
               id="stop25" />
            <stop
               offset="100%"
               stop-color="#96ceff"
               id="stop27" />
          </linearGradient>
        </defs>
        <g
           id="g32" />
        <g
           id="g34" />
        <g
           id="g36" />
        <g
           id="g40">
          <polygon
             points="143.41,184.34 71.7,0 0,184.34 71.7,368.69 "
             style="fill:url(#linearGradientSke4dp1soa);stroke:none"
             id="polygon38" />
        </g>
      </svg>
    </g>
    <g
       transform="matrix(0.4035,0.2425,-0.1512,0.2517,426.7271,59.8813)"
       id="g65">
      <svg
         width="153.41"
         height="378.69"
         viewBox="-5 -5 153.41 378.69"
         version="1.1"
         id="svg63">
        <defs
           id="defs51">
          <linearGradient
             x1="0"
             y1="0.5"
             x2="1"
             y2="0.5"
             id="linearGradientSke4dp1sog">
            <stop
               offset="0%"
               stop-color="#4c96d7"
               id="stop46" />
            <stop
               offset="100%"
               stop-color="#4c96d7"
               id="stop48" />
          </linearGradient>
        </defs>
        <g
           id="g53" />
        <g
           id="g55" />
        <g
           id="g57" />
        <g
           id="g61">
          <polygon
             points="143.41,184.34 71.7,0 0,184.34 71.7,368.69 "
             style="fill:url(#linearGradientSke4dp1sog);stroke:none"
             id="polygon59" />
        </g>
      </svg>
    </g>
    <g
       transform="matrix(0.4035,0.2425,-0.1512,0.2517,366.7271,28.8813)"
       id="g86">
      <svg
         width="153.41"
         height="378.69"
         viewBox="-5 -5 153.41 378.69"
         version="1.1"
         id="svg84">
        <defs
           id="defs72">
          <linearGradient
             x1="0"
             y1="0.5"
             x2="1"
             y2="0.5"
             id="linearGradientSke4dp1som">
            <stop
               offset="0%"
               stop-color="#2f7bbd"
               id="stop67" />
            <stop
               offset="100%"
               stop-color="#2f7bbd"
               id="stop69" />
          </linearGradient>
        </defs>
        <g
           id="g74" />
        <g
           id="g76" />
        <g
           id="g78" />
        <g
           id="g82">
          <polygon
             points="143.41,184.34 71.7,0 0,184.34 71.7,368.69 "
             style="fill:url(#linearGradientSke4dp1som);stroke:none"
             id="polygon80" />
        </g>
      </svg>
    </g>
    <g
       transform="matrix(2.4893,0,0,2.4893,210.3283,0.5365)"
       id="g105">
      <svg
         width="105.31622"
         height="100.99725"
         viewBox="-2.66 -0.49825 105.31622 100.99725"
         version="1.1"
         id="svg103">
        <defs
           id="defs93">
          <linearGradient
             x1="0"
             y1="0.5"
             x2="1"
             y2="0.5"
             id="linearGradientSke4dp1sos">
            <stop
               offset="0%"
               stop-color="#5eb4ff"
               id="stop88" />
            <stop
               offset="100%"
               stop-color="#5eb4ff"
               id="stop90" />
          </linearGradient>
        </defs>
        <g
           id="g95" />
        <g
           id="g97" />
        <g
           id="g101">
          <path
             d="M 97.622,30.671 C 97.621,30.667 97.619,30.663 97.618,30.659 97.615,30.647 97.607,30.637 97.603,30.625 97.601,30.618 97.597,30.611 97.594,30.604 97.573,30.544 97.552,30.485 97.52,30.43 97.506,30.406 97.486,30.385 97.469,30.362 97.467,30.359 97.465,30.356 97.462,30.353 97.446,30.331 97.432,30.309 97.413,30.288 97.395,30.267 97.38,30.244 97.36,30.225 97.337,30.202 97.307,30.184 97.281,30.163 97.244,30.133 97.21,30.099 97.168,30.074 97.162,30.071 97.155,30.07 97.149,30.066 97.144,30.063 97.14,30.059 97.135,30.056 L 73.948,17.412 C 73.873,17.357 73.791,17.311 73.703,17.279 L 50.477,4.624 c -0.299,-0.163 -0.659,-0.163 -0.957,0 L 26.193,17.337 c -0.321,0.175 -0.521,0.512 -0.521,0.878 V 43.053 L 2.863,55.48 c -0.033,0.02 -0.06,0.045 -0.09,0.066 -0.027,0.02 -0.055,0.037 -0.08,0.059 -0.088,0.076 -0.164,0.164 -0.22,0.264 -0.003,0.004 -0.007,0.008 -0.01,0.012 -0.006,0.012 -0.006,0.025 -0.012,0.037 -0.045,0.092 -0.074,0.189 -0.09,0.291 -0.005,0.031 -0.01,0.059 -0.012,0.09 -0.002,0.02 -0.009,0.039 -0.009,0.061 v 25.426 c 0,0.367 0.2,0.703 0.521,0.879 l 23.33,12.713 c 0.047,0.025 0.097,0.039 0.146,0.057 0.027,0.01 0.052,0.023 0.079,0.031 0.084,0.021 0.168,0.033 0.253,0.033 v 0 h 0.001 c 0.085,0 0.17,-0.012 0.252,-0.033 0.003,0 0.006,0 0.009,-0.002 0.019,-0.004 0.035,-0.016 0.053,-0.021 0.01,-0.004 0.019,-0.008 0.028,-0.012 0.046,-0.018 0.093,-0.029 0.137,-0.053 L 97.135,57.237 c 0.321,-0.174 0.521,-0.512 0.521,-0.877 V 30.934 c 0.002,-0.09 -0.01,-0.179 -0.034,-0.263 z M 50.998,31.527 72.332,19.899 V 43.053 L 50.998,54.676 Z m 0,25.426 L 72.332,45.33 V 68.476 L 50.998,80.104 Z M 27.672,69.666 48.998,58.043 v 23.15 L 27.672,92.814 Z M 95.658,55.766 74.332,67.387 V 44.24 L 95.658,32.617 Z"
             style="fill:url(#linearGradientSke4dp1sos);stroke:none"
             id="path99"
             inkscape:connector-curvature="0" />
        </g>
      </svg>
    </g>
    <g
       transform="matrix(0.9557,0,0,0.9557,86.4428,246.1701)"
       id="g120"
       style="fill:#ffffff;fill-opacity:1">
      <svg
         width="546.40002"
         height="160"
         style="overflow:visible;fill:#ffffff;fill-opacity:1"
         version="1.1"
         id="svg118">
        <defs
           id="defs112">
          <linearGradient
             x1="0"
             y1="0.5"
             x2="1"
             y2="0.5"
             id="linearGradientSke4dp1so14">
            <stop
               offset="0%"
               stop-color="#042440"
               id="stop107" />
            <stop
               offset="100%"
               stop-color="#042440"
               id="stop109" />
          </linearGradient>
        </defs>
        <g
           transform="translate(0,75)"
           id="g116"
           style="fill:#ffffff;fill-opacity:1">
          <path
             d="M 44.2,0 V 0 H 10.5 Q 8.6,0 7.75,-0.85 6.9,-1.7 6.9,-3.6 v 0 -64.8 q 0,-1.9 0.85,-2.75 Q 8.6,-72 10.5,-72 v 0 h 33.7 q 12.5,0 18.55,5 6.05,5 6.05,15.4 v 0 31.2 Q 68.8,-10 62.75,-5 56.7,0 44.2,0 Z M 41.5,-52.9 H 29.6 v 34 h 11.9 q 2.4,0 3.55,-1.2 1.15,-1.2 1.15,-3.7 v 0 -24.3 q 0,-2.5 -1.15,-3.65 Q 43.9,-52.9 41.5,-52.9 Z M 131.5,0 V 0 H 85.1 Q 83.2,0 82.35,-0.85 81.5,-1.7 81.5,-3.6 v 0 -64.8 q 0,-1.9 0.85,-2.75 Q 83.2,-72 85.1,-72 v 0 h 46.4 q 1.9,0 2.75,0.85 0.85,0.85 0.85,2.75 v 0 11.7 q 0,1.9 -0.85,2.75 -0.85,0.85 -2.75,0.85 v 0 h -27.6 v 7.7 h 19.5 q 1.9,0 2.75,0.85 0.85,0.85 0.85,2.75 v 0 10.7 q 0,1.9 -0.85,2.75 -0.85,0.85 -2.75,0.85 v 0 h -19.5 v 8.6 h 27.6 q 1.9,0 2.75,0.85 0.85,0.85 0.85,2.75 v 0 11.7 q 0,1.9 -0.85,2.75 Q 133.4,0 131.5,0 Z m 58,0 v 0 h -26 q -1.9,0 -3.15,-0.7 -1.25,-0.7 -1.95,-2.6 v 0 l -9.8,-24.5 q -0.9,-2.2 -1.5,-3.85 -0.6,-1.65 -1,-3.15 -0.4,-1.5 -0.55,-3.15 -0.15,-1.65 -0.15,-4.05 v 0 -26.4 q 0,-1.9 0.85,-2.75 Q 147.1,-72 149,-72 v 0 h 15.9 q 1.9,0 2.9,0.85 1,0.85 1,2.75 v 0 27.6 q 0,1 0.2,2 0.2,1 0.6,2.1 v 0 l 4.7,14 q 0.3,1 0.7,1.35 0.4,0.35 1.2,0.35 v 0 h 1.1 q 0.8,0 1.2,-0.35 0.4,-0.35 0.7,-1.35 v 0 l 4.7,-14.1 q 0.4,-1.1 0.6,-2.1 0.2,-1 0.2,-2 v 0 -27.5 q 0,-1.9 0.85,-2.75 0.85,-0.85 2.75,-0.85 v 0 H 204 q 1.9,0 2.75,0.85 0.85,0.85 0.85,2.75 v 0 26.4 q 0,2.4 -0.15,4.05 -0.15,1.65 -0.55,3.15 -0.4,1.5 -1,3.15 -0.6,1.65 -1.5,3.85 v 0 l -9.8,24.5 q -0.7,1.9 -1.95,2.6 Q 191.4,0 189.5,0 Z M 283,0 v 0 h -15 q -1.9,0 -2.75,-0.85 -0.85,-0.85 -0.85,-2.75 v 0 -64.8 q 0,-1.9 0.85,-2.75 Q 266.1,-72 268,-72 v 0 h 10.4 q 1.9,0 3.25,0.6 1.35,0.6 2.65,2.1 v 0 l 19.4,22.2 v -21.3 q 0,-1.9 0.85,-2.75 0.85,-0.85 2.75,-0.85 v 0 h 15 q 1.9,0 2.75,0.85 0.85,0.85 0.85,2.75 v 0 64.8 q 0,1.9 -0.85,2.75 Q 324.2,0 322.3,0 v 0 h -15 q -1.9,0 -2.75,-0.85 -0.85,-0.85 -0.85,-2.75 v 0 -12.3 l -17.1,-20.7 v 33 q 0,1.9 -0.85,2.75 Q 284.9,0 283,0 Z m 118,-68.4 v 49.5 q 0,4.6 -1.35,8.35 -1.35,3.75 -4.8,6.4 -3.45,2.65 -9.45,4.15 -6,1.5 -15.3,1.5 v 0 q -9.3,0 -15.3,-1.5 -6,-1.5 -9.45,-4.15 -3.45,-2.65 -4.8,-6.4 -1.35,-3.75 -1.35,-8.35 v 0 -49.5 q 0,-1.9 0.85,-2.75 0.85,-0.85 2.75,-0.85 v 0 h 15.7 q 1.9,0 2.75,0.85 0.85,0.85 0.85,2.75 v 0 45.6 q 0,2 1.5,3.35 1.5,1.35 6.7,1.35 v 0 q 5.3,0 6.8,-1.35 1.5,-1.35 1.5,-3.35 v 0 -45.6 q 0,-1.9 0.85,-2.75 0.85,-0.85 2.75,-0.85 v 0 h 15.2 q 1.9,0 2.75,0.85 0.85,0.85 0.85,2.75 z M 468.8,0 V 0 H 417.9 Q 416,0 415.15,-0.85 414.3,-1.7 414.3,-3.6 v 0 -64.8 q 0,-1.9 0.85,-2.75 Q 416,-72 417.9,-72 v 0 h 15.5 q 1.9,0 2.75,0.85 0.85,0.85 0.85,2.75 v 0 49.5 h 13.7 v -16.2 q 0,-1.9 0.85,-2.75 0.85,-0.85 2.75,-0.85 v 0 h 14.5 q 1.9,0 2.75,0.85 0.85,0.85 0.85,2.75 v 0 31.5 q 0,1.9 -0.85,2.75 Q 470.7,0 468.8,0 Z m 69.5,0 v 0 h -50.9 q -1.9,0 -2.75,-0.85 -0.85,-0.85 -0.85,-2.75 v 0 -64.8 q 0,-1.9 0.85,-2.75 0.85,-0.85 2.75,-0.85 v 0 h 15.5 q 1.9,0 2.75,0.85 0.85,0.85 0.85,2.75 v 0 49.5 h 13.7 v -16.2 q 0,-1.9 0.85,-2.75 0.85,-0.85 2.75,-0.85 v 0 h 14.5 q 1.9,0 2.75,0.85 0.85,0.85 0.85,2.75 v 0 31.5 q 0,1.9 -0.85,2.75 Q 540.2,0 538.3,0 Z"
             data-textpath="Dev  Null"
             data-text-anchor="middle"
             data-font-size="100"
             data-letterspacing="0"
             data-side="left"
             data-offset="0.5"
             data-dx="0"
             data-dy="0"
             data-xmlspace="preserve"
             data-href=""
             data-font="Bungee"
             data-font-src="/Content/clientfonts/bungee.woff"
             data-font-scale="contain"
             data-x="0"
             data-y="0"
             id="path114"
             inkscape:connector-curvature="0"
             style="fill:#ffffff;fill-opacity:1" />
        </g>
      </svg>
    </g>
    <g
       transform="matrix(0.6717,0,0,0.6717,88.1828,335.0858)"
       id="g135"
       style="fill:#ffffff;fill-opacity:1">
      <svg
         width="767.79999"
         height="160"
         style="overflow:visible;fill:#ffffff;fill-opacity:1"
         version="1.1"
         id="svg133">
        <defs
           id="defs127">
          <linearGradient
             x1="0"
             y1="0.5"
             x2="1"
             y2="0.5"
             id="linearGradientSke4dp1so17">
            <stop
               offset="0%"
               stop-color="#042440"
               id="stop122" />
            <stop
               offset="100%"
               stop-color="#042440"
               id="stop124" />
          </linearGradient>
        </defs>
        <g
           transform="translate(0,75)"
           id="g131"
           style="fill:#ffffff;fill-opacity:1">
          <path
             d="M 26,0 V 0 H 10.5 Q 8.6,0 7.75,-0.85 6.9,-1.7 6.9,-3.6 v 0 -64.8 q 0,-1.9 0.85,-2.75 Q 8.6,-72 10.5,-72 v 0 h 30.6 q 13.6,0 18.6,5.4 5,5.4 5,14.1 v 0 12.8 q 0,8.7 -5,14.1 -5,5.4 -18.6,5.4 v 0 H 29.6 v 16.6 q 0,1.9 -0.85,2.75 Q 27.9,0 26,0 Z m 12.4,-53.3 h -9 v 15.1 h 9 q 2.9,0 3.8,-1.5 0.9,-1.5 0.9,-3.4 v 0 -5.3 q 0,-1.9 -0.9,-3.4 -0.9,-1.5 -3.8,-1.5 z m 66.8,-0.7 h -7.5 v 12.8 h 7.5 q 2.6,0 3.5,-1.35 0.9,-1.35 0.9,-3.35 v 0 -3.4 q 0,-2 -0.9,-3.35 Q 107.8,-54 105.2,-54 Z M 94.1,0 V 0 H 78.7 Q 76.8,0 75.95,-0.85 75.1,-1.7 75.1,-3.6 v 0 -64.8 q 0,-1.9 0.85,-2.75 Q 76.8,-72 78.7,-72 v 0 H 112 q 11.2,0 15.45,4.65 4.25,4.65 4.25,12.05 v 0 4.6 q 0,4.2 -1.25,7.15 -1.25,2.95 -4.35,4.25 v 0 q 5.4,0.6 8.75,4.4 3.35,3.8 3.35,10.1 v 0 21.2 q 0,1.9 -0.85,2.75 Q 136.5,0 134.6,0 v 0 h -15.5 q -1.9,0 -2.75,-0.85 -0.85,-0.85 -0.85,-2.75 v 0 -15.3 q 0,-2.2 -0.85,-3.25 -0.85,-1.05 -2.95,-1.05 v 0 h -14 v 19.6 q 0,1.9 -0.85,2.75 Q 96,0 94.1,0 Z m 115.8,-53 v 34.1 q 0,4.6 -1.35,8.35 -1.35,3.75 -4.8,6.4 -3.45,2.65 -9.5,4.15 -6.05,1.5 -15.35,1.5 v 0 q -9.3,0 -15.4,-1.5 -6.1,-1.5 -9.55,-4.15 -3.45,-2.65 -4.8,-6.4 -1.35,-3.75 -1.35,-8.35 v 0 -34.1 q 0,-4.6 1.35,-8.35 1.35,-3.75 4.8,-6.45 3.45,-2.7 9.55,-4.2 6.1,-1.5 15.4,-1.5 v 0 q 9.3,0 15.35,1.5 6.05,1.5 9.5,4.2 3.45,2.7 4.8,6.45 1.35,3.75 1.35,8.35 z m -39.4,3.6 v 26.9 q 0,2 1.5,3.35 1.5,1.35 6.9,1.35 v 0 q 5.4,0 6.9,-1.35 1.5,-1.35 1.5,-3.35 v 0 -26.9 q 0,-1.9 -1.5,-3.25 -1.5,-1.35 -6.9,-1.35 v 0 q -5.4,0 -6.9,1.35 -1.5,1.35 -1.5,3.25 z M 259.9,0 v 0 h -33.7 q -1.9,0 -2.75,-0.85 -0.85,-0.85 -0.85,-2.75 v 0 -64.8 q 0,-1.9 0.85,-2.75 0.85,-0.85 2.75,-0.85 v 0 h 33.7 q 12.5,0 18.55,5 6.05,5 6.05,15.4 v 0 31.2 q 0,10.4 -6.05,15.4 -6.05,5 -18.55,5 z m -2.7,-52.9 h -11.9 v 34 h 11.9 q 2.4,0 3.55,-1.2 1.15,-1.2 1.15,-3.7 v 0 -24.3 q 0,-2.5 -1.15,-3.65 -1.15,-1.15 -3.55,-1.15 z m 101.3,-15.5 v 49.5 q 0,4.6 -1.35,8.35 -1.35,3.75 -4.8,6.4 -3.45,2.65 -9.45,4.15 -6,1.5 -15.3,1.5 v 0 q -9.3,0 -15.3,-1.5 -6,-1.5 -9.45,-4.15 -3.45,-2.65 -4.8,-6.4 -1.35,-3.75 -1.35,-8.35 v 0 -49.5 q 0,-1.9 0.85,-2.75 0.85,-0.85 2.75,-0.85 v 0 H 316 q 1.9,0 2.75,0.85 0.85,0.85 0.85,2.75 v 0 45.6 q 0,2 1.5,3.35 1.5,1.35 6.7,1.35 v 0 q 5.3,0 6.8,-1.35 1.5,-1.35 1.5,-3.35 v 0 -45.6 q 0,-1.9 0.85,-2.75 0.85,-0.85 2.75,-0.85 v 0 h 15.2 q 1.9,0 2.75,0.85 0.85,0.85 0.85,2.75 z M 419.7,0 v 0 h -24.4 q -12.5,0 -18.55,-5 -6.05,-5 -6.05,-15.4 v 0 -31.1 q 0,-10.4 6.05,-15.45 Q 382.8,-72 395.3,-72 v 0 h 24.4 q 1.9,0 2.75,0.85 0.85,0.85 0.85,2.75 v 0 12.1 q 0,1.9 -0.85,2.75 -0.85,0.85 -2.75,0.85 v 0 h -20.1 q -3.1,0 -4.6,1.25 -1.5,1.25 -1.5,3.75 v 0 23.8 q 0,2.5 1.5,3.65 1.5,1.15 4.6,1.15 v 0 h 20.1 q 1.9,0 2.75,0.85 0.85,0.85 0.85,2.75 v 0 11.9 q 0,1.9 -0.85,2.75 Q 421.6,0 419.7,0 Z m 48.9,0 v 0 h -16.2 q -1.9,0 -2.75,-0.85 -0.85,-0.85 -0.85,-2.75 v 0 -49.1 h -14.7 q -1.9,0 -2.75,-0.85 -0.85,-0.85 -0.85,-2.75 v 0 -12.1 q 0,-1.9 0.85,-2.75 0.85,-0.85 2.75,-0.85 v 0 h 52.8 q 1.9,0 2.75,0.85 0.85,0.85 0.85,2.75 v 0 12.1 q 0,1.9 -0.85,2.75 -0.85,0.85 -2.75,0.85 v 0 h -14.7 v 49.1 q 0,1.9 -0.85,2.75 Q 470.5,0 468.6,0 Z m 76.2,0 h -42.6 q -1.9,0 -2.75,-0.85 -0.85,-0.85 -0.85,-2.75 v 0 -11.9 q 0,-1.9 0.85,-2.75 0.85,-0.85 2.75,-0.85 v 0 h 9.9 v -33.6 h -9.9 q -1.9,0 -2.75,-0.85 -0.85,-0.85 -0.85,-2.75 v 0 -12.1 q 0,-1.9 0.85,-2.75 0.85,-0.85 2.75,-0.85 v 0 h 42.6 q 1.9,0 2.75,0.85 0.85,0.85 0.85,2.75 v 0 12.1 q 0,1.9 -0.85,2.75 -0.85,0.85 -2.75,0.85 v 0 h -9.7 v 33.6 h 9.7 q 1.9,0 2.75,0.85 0.85,0.85 0.85,2.75 v 0 11.9 q 0,1.9 -0.85,2.75 Q 546.7,0 544.8,0 Z m 76.9,-53 v 34.1 q 0,4.6 -1.35,8.35 -1.35,3.75 -4.8,6.4 Q 612.1,-1.5 606.05,0 600,1.5 590.7,1.5 v 0 q -9.3,0 -15.4,-1.5 -6.1,-1.5 -9.55,-4.15 -3.45,-2.65 -4.8,-6.4 -1.35,-3.75 -1.35,-8.35 v 0 -34.1 q 0,-4.6 1.35,-8.35 1.35,-3.75 4.8,-6.45 3.45,-2.7 9.55,-4.2 6.1,-1.5 15.4,-1.5 v 0 q 9.3,0 15.35,1.5 6.05,1.5 9.5,4.2 3.45,2.7 4.8,6.45 1.35,3.75 1.35,8.35 z m -39.4,3.6 v 26.9 q 0,2 1.5,3.35 1.5,1.35 6.9,1.35 v 0 q 5.4,0 6.9,-1.35 1.5,-1.35 1.5,-3.35 v 0 -26.9 q 0,-1.9 -1.5,-3.25 -1.5,-1.35 -6.9,-1.35 v 0 q -5.4,0 -6.9,1.35 -1.5,1.35 -1.5,3.25 z M 653,0 v 0 h -15 q -1.9,0 -2.75,-0.85 -0.85,-0.85 -0.85,-2.75 v 0 -64.8 q 0,-1.9 0.85,-2.75 Q 636.1,-72 638,-72 v 0 h 10.4 q 1.9,0 3.25,0.6 1.35,0.6 2.65,2.1 v 0 l 19.4,22.2 v -21.3 q 0,-1.9 0.85,-2.75 0.85,-0.85 2.75,-0.85 v 0 h 15 q 1.9,0 2.75,0.85 0.85,0.85 0.85,2.75 v 0 64.8 q 0,1.9 -0.85,2.75 Q 694.2,0 692.3,0 v 0 h -15 q -1.9,0 -2.75,-0.85 -0.85,-0.85 -0.85,-2.75 v 0 -12.3 l -17.1,-20.7 v 33 q 0,1.9 -0.85,2.75 Q 654.9,0 653,0 Z m 90.1,0 v 0 h -31.6 q -1.9,0 -2.75,-0.85 -0.85,-0.85 -0.85,-2.75 v 0 -11.7 q 0,-1.9 0.85,-2.75 0.85,-0.85 2.75,-0.85 v 0 h 26.9 q 1.3,0 1.95,-0.85 0.65,-0.85 0.65,-2.05 v 0 q 0,-1.7 -0.65,-2.5 -0.65,-0.8 -1.95,-0.9 v 0 l -15,-2.1 q -7,-1 -11.25,-4.6 -4.25,-3.6 -4.25,-12 v 0 -10.5 q 0,-8.5 5.5,-13.05 5.5,-4.55 15.2,-4.55 v 0 h 28 q 1.9,0 2.75,0.85 0.85,0.85 0.85,2.75 v 0 11.9 q 0,1.9 -0.85,2.75 -0.85,0.85 -2.75,0.85 v 0 h -23.3 q -1.3,0 -2,0.85 -0.7,0.85 -0.7,2.15 v 0 q 0,1.3 0.7,2.2 0.7,0.9 2,1 v 0 l 14.9,2 q 7,1 11.3,4.6 4.3,3.6 4.3,12 v 0 10.5 q 0,8.5 -5.55,13.05 Q 752.7,0 743.1,0 Z"
             data-textpath="Productions"
             data-text-anchor="middle"
             data-font-size="100"
             data-letterspacing="0"
             data-side="left"
             data-offset="0.5"
             data-dx="0"
             data-dy="0"
             data-xmlspace="preserve"
             data-href=""
             data-font="Bungee"
             data-font-src="/Content/clientfonts/bungee.woff"
             data-font-scale="contain"
             data-x="0"
             data-y="0"
             id="path129"
             inkscape:connector-curvature="0"
             style="fill:#ffffff;fill-opacity:1" />
        </g>
      </svg>
    </g>
  </g>
</svg>
